<svg id="Layer_1" data-name="Layer 1" xmlns="http://www.w3.org/2000/svg" viewBox="0 0 200 87.02"><defs><style>.cls-1{fill:#165eaa;}</style></defs><path class="cls-1" d="M79.23,87c-6.82-.37-11.92-3.18-14.89-8.22a17.63,17.63,0,0,1-1.7-12.37c1-5,4.46-9.57,9.73-12.84a50.18,50.18,0,0,1,10.92-4.9c1.33-.47,2.48-.9,2.55-1s.12-.38.07-1.34A39,39,0,0,1,87,36.22c1.31-5.21,3.82-9.41,7.16-12a21.15,21.15,0,0,1,8.67-3.79,19.79,19.79,0,0,1,6.24,0c7,1.4,10.87,6.77,9.33,12.82a15.91,15.91,0,0,1-2.21,4.52c-2.22,3-5.57,5.59-10.28,8.1-.6.32-2.54,1.27-4.32,2.12s-3.29,1.61-3.36,1.68-.07.38.12,1.36a37.38,37.38,0,0,0,4.91,12.53,41.79,41.79,0,0,0,2.57,3.92c.23.15,1.17-1.37,1.78-2.88a12.38,12.38,0,0,0,1-5.54,4.6,4.6,0,0,0-1.24-2.39,3.37,3.37,0,0,1-.51-.58c0-.05,2.36-.07,5.26-.06l5.27,0,0,.67a26.45,26.45,0,0,1-.74,4.25,25.1,25.1,0,0,1-6.19,10.87,4.11,4.11,0,0,0-.7.93,7.92,7.92,0,0,0,1.21,1.33,60.6,60.6,0,0,0,17.47,11,3.9,3.9,0,0,1,1.06.52c0,.07-3.46.11-10.1.13l-10.08,0-.58-.32a47.42,47.42,0,0,1-6.26-5.06,5.91,5.91,0,0,0-1.11-.89,7.87,7.87,0,0,0-1.3.76,47.06,47.06,0,0,1-10.38,5.15A26.58,26.58,0,0,1,79.23,87Zm8.49-8.74a27.8,27.8,0,0,0,5.08-1.5,19.72,19.72,0,0,0,3.91-1.93,6.38,6.38,0,0,0-.87-1.46A65,65,0,0,1,89.3,61.09c-.62-1.56-1.78-5-2-6a1.12,1.12,0,0,0-.28-.6,14.54,14.54,0,0,0-3.83,2c-5.92,3.92-8.76,8.71-8.13,13.71a8.79,8.79,0,0,0,2.27,5.22C79.7,78,83.4,79,87.72,78.24Zm10-34.8a34.56,34.56,0,0,0,7.61-6.81c2.48-3.1,3.81-6,3.81-8.33A3,3,0,0,0,106,24.86c-3.15,0-6.56,3.75-8,8.84A21.19,21.19,0,0,0,97,40.79c0,2.39,0,2.93.22,2.93A3.46,3.46,0,0,0,97.77,43.44Zm52.16,43.48a43.07,43.07,0,0,1-12.48-2.83c-5.26-2.09-8.54-4.67-11.32-8.9a34.35,34.35,0,0,1-2.7-5.39c-2.4-6.54-2.93-14.78-1.5-23.38a59.11,59.11,0,0,1,9.32-23.64,55.63,55.63,0,0,1,11.9-12.11A53.66,53.66,0,0,1,168.88.46a53.21,53.21,0,0,1,8-.46,67.75,67.75,0,0,1,14.39,1.44c3.33.66,8.65,2.1,8.75,2.36s-3.32,10.93-3.46,11.07a4.14,4.14,0,0,1-1.14-.77,31.19,31.19,0,0,0-14.59-6.83,26,26,0,0,0-6.11,0c-6.95,1.07-13.39,5.51-19.11,13.17a65.39,65.39,0,0,0-5.5,8.94,73.51,73.51,0,0,0-5.14,13c-4.77,15.95-5,27.09-.72,33.12a11.64,11.64,0,0,0,7.65,4.67c1.89.35,6.46.14,6.92-.32.07-.07,2.31-7.06,5-15.54,4.36-13.92,4.84-15.49,4.89-16.28a5.47,5.47,0,0,0-.61-2.91,7.39,7.39,0,0,0-2.52-2.48,3.33,3.33,0,0,1-.74-.49s7.32-.08,16.28-.08,16.29,0,16.29.08a4,4,0,0,1-.88.48A10.8,10.8,0,0,0,191,47.8c-.24.49-2.29,6.86-5.37,16.67l-5,15.87-1.44.69A66.52,66.52,0,0,1,159,86.74c-1.31.16-8,.29-9.09.18ZM0,85.76c0-.05.19-.24.48-.41a12.91,12.91,0,0,0,4.6-4.89C5.33,80,27.67,8.79,28.16,7a7,7,0,0,0,.16-1.51,4.7,4.7,0,0,0-1.61-3.75,2.68,2.68,0,0,1-.56-.63c0-.14,39-.13,40.81,0A29.39,29.39,0,0,1,77.67,3.92c5.07,2.58,8.1,6.48,9,11.64a27,27,0,0,1,.1,6.17,38,38,0,0,1-7.6,17.8C72.91,47.35,62.62,52.35,50,53.73A76.86,76.86,0,0,1,37.38,54a16.69,16.69,0,0,0-1.93-.09c-.12.12-8.18,26-8.27,26.55a5.06,5.06,0,0,0,2.21,4.82c.31.21.54.42.51.48s-29.82.13-29.9,0ZM44.29,47.37a19.62,19.62,0,0,0,8-3.36A29.78,29.78,0,0,0,57,39.28a38.81,38.81,0,0,0,6-12.93,31,31,0,0,0,1.39-8.74,12.24,12.24,0,0,0-.71-4.7A7.81,7.81,0,0,0,59.35,8.4c-1.72-.69-3.19-.88-6.73-.84L50,7.59,43.76,27.33c-3.41,10.85-6.18,19.78-6.16,19.84a2.29,2.29,0,0,0,.95.24c.5.07,1,.14,1.06.17a33.12,33.12,0,0,0,4.68-.21Z"/></svg>