<svg id="Capa_1" data-name="Capa 1" xmlns="http://www.w3.org/2000/svg" viewBox="0 0 483.3 371.38"><defs><style>.cls-1,.cls-2{fill:#fff;}.cls-1,.cls-23{stroke:#fff;}.cls-1,.cls-20,.cls-22,.cls-23{stroke-linecap:round;}.cls-1{stroke-linejoin:round;stroke-width:12px;}.cls-3{fill:#372b1e;}.cls-4{fill:#6d4b34;}.cls-5{fill:#8d623c;}.cls-6{fill:#514f4a;}.cls-7{fill:#d2c3a2;}.cls-8{fill:#3d2a18;}.cls-9{fill:#d1c2a2;}.cls-10{fill:#715135;}.cls-11{fill:#5d3a17;}.cls-12{fill:#d2c1a2;}.cls-13{fill:#d0c1a1;}.cls-14{fill:#fafbfa;}.cls-15{fill:#9e9680;}.cls-16{fill:#393a37;}.cls-17{fill:#3d2610;}.cls-18{fill:#27201e;}.cls-19,.cls-20,.cls-21,.cls-22,.cls-23{fill:none;stroke-miterlimit:10;stroke-width:2px;}.cls-19,.cls-20{stroke:#372b1e;}.cls-21,.cls-22{stroke:#231f20;}</style></defs><path class="cls-1" d="M418.5,39.43c.14.18.1.16,0,0Z"/><path class="cls-1" d="M349.37,344.6a11.36,11.36,0,0,1-.19,1.43,13.1,13.1,0,0,1-.65,2.13,14.44,14.44,0,0,0,.51-1.7A13.89,13.89,0,0,0,349.37,344.6Z"/><path class="cls-1" d="M371,203a27.5,27.5,0,0,1-4.88.63l-53.8,3.77Z"/><path class="cls-1" d="M319.16,45.13a71.57,71.57,0,0,0-8.78.18C309.53,45,314.14,44.78,319.16,45.13Z"/><path class="cls-1" d="M305.6,364.58l-.77-.12.68.08Z"/><path class="cls-1" d="M300.39,35.31l-1.21.14C300.5,35.24,301.11,35.17,300.39,35.31Z"/><path class="cls-1" d="M300.17,57.69l-.57.18v0C299.8,57.77,300,57.72,300.17,57.69Z"/><path class="cls-1" d="M295.57,36.06c.64-.13,1.29-.24,1.93-.34Z"/><path class="cls-1" d="M286.86,63.94l0,0-.33-.46C286.62,63.65,286.73,63.79,286.86,63.94Z"/><path class="cls-1" d="M286.52,129.67c-1.45,3.77-2.39,14-2.39,12a31.73,31.73,0,0,1,2.38-12Z"/><path class="cls-1" d="M284,299.77a31,31,0,0,0-5,3l3.11-8.15C282.7,296.35,283.31,298.06,284,299.77Z"/><path class="cls-1" d="M274,132l-5.7,4.91C269.83,135.54,271.9,133.77,274,132Z"/><path class="cls-1" d="M268.23,137c-.78.72-1.44,1.33-1.9,1.8a13.49,13.49,0,0,0-2.45,2.86c-1.33,1.94.62,8.66.5,11a33.68,33.68,0,0,0-2.85-11.57,1,1,0,0,0,1.6.3Z"/><path class="cls-1" d="M261.53,141.07c-.39-.53-.77-1.39-1.38-2.4A19.1,19.1,0,0,1,261.53,141.07Z"/><path class="cls-1" d="M260.15,138.67c-.14-.2-.27-.4-.42-.59a18.27,18.27,0,0,0-3-3.23A13,13,0,0,1,260.15,138.67Z"/><path class="cls-1" d="M256.55,134.74c-3.67-2.67-4.74-2.47-7-3.83A21.8,21.8,0,0,1,256.55,134.74Z"/><path class="cls-1" d="M245.88,47.94c-.11.05-.9.27-2.2.63l1.87-.59Z"/><path class="cls-1" d="M243.6,48.59,232.86,52c-1.31.41-2.62.83-3.92,1.26C234.79,51.07,240.54,49.45,243.6,48.59Z"/><path class="cls-1" d="M239.12,129.52c-1.14,0-2.28.12-3.41.25A29.91,29.91,0,0,1,239.12,129.52Z"/><path class="cls-1" d="M228.9,53.22c-5.3,1.92-10.7,4.26-14.26,6.78a33.76,33.76,0,0,1,2.86-1.9A58.09,58.09,0,0,1,228.9,53.22Z"/><path class="cls-1" d="M83.93,109.66a6.59,6.59,0,0,1-1.08.11"/><path class="cls-1" d="M49.38,46.42l.39.28c-.41,1.08-2,4.81-1,2.79a15.47,15.47,0,0,1,4.31-5.16"/><path class="cls-1" d="M99.69,81.41c0-.24,0-.48-.08-.71"/><path class="cls-1" d="M286.52,129.67c-1.45,3.77-2.39,14-2.39,12a31.73,31.73,0,0,1,2.38-12Z"/><path class="cls-1" d="M264,158.06v0"/><path class="cls-1" d="M349.37,344.6c.7-5.2-.29-11.45,2.4-15.71"/><path class="cls-1" d="M476.4,55.23c-3.07-5.12-5-7.09-8.17-8.45-1.42-.6-4.78-1.82-6.63-2.44-.47-.16-.87-.34-1.28-.48.23-2.47-1.6-5.21-3.45-6.86s-5.91-6.18-18.22-5.31a48.23,48.23,0,0,0-5.29.89c-1.89.32-10.09,1.75-12.17,2.29-4.56,1.19-3.17,3.87-2.72,4.53l-.05-.06c-4.65-3.75-11.12-1.77-16.78.09-6.11,2-11.37,6.52-10.22,13.55a0,0,0,0,1,0,0c-.41-.58-8.72-14.59-15.31-17.91a9.25,9.25,0,0,0-8.72.19c-.09-.91-.19-1.82-.29-2.74-1.42-12.71-4-22.26-18.35-25.4-7.08-1.55-14.42-.77-21.66-.27-14.1,1-28.26.89-42.4.8,0,0-15,0-127.29-1.44,0,0-13.33-1.11-15.79,1.45a1.12,1.12,0,0,0-.19.24V7.82L119.7,21.12a16.77,16.77,0,0,0-5.34,4.39A11.65,11.65,0,0,0,112.6,30a16.21,16.21,0,0,0-16.34,2.24c-12.74,10.06-7.58,24-12.79,13.34a21.93,21.93,0,0,0-2.85-3.75c-5.61-6-12.91-6.91-19.76-3.29A1.35,1.35,0,0,1,59,37.8C51.39,28.53,31.22,34.42,22.32,40,19.63,41,18,45.76,22,45.87a25.4,25.4,0,0,0,4.43-.11c8.9-2.28,19.06-3.67,23,.66-6.73-4.77-15.18-1.47-23-.66-5.07,1.29-9.73,2.88-12.58,3.87C4.13,53.56,2,70.36,15.88,62.91l1-.44C1.29,70.71,19,78.78,34.84,75.69c11-2.15,12.95,20.38,21.12,25.12,8.18,4.16,13.24,1.5,20,5.09l.42-.12c.63,2.31,3.45,4.13,6.44,4,.53,9.51,24.17,26.31,31.68,31.18.2,20.5,0,41-.58,61.51-.14,4.41.15,9.69,3.94,11.94,1.87,1.1,4.15,1,6.32,1.17,7.11.51,19.55,2.51,26.84,2.57h0a10.14,10.14,0,0,0,4,.32l87.31-6.12,69.91-4.9L371,203A10.31,10.31,0,0,0,374,201.8c4.81-3,5.79-9.61,5.5-15.26-1.35-25.56-3-50.93-5-76.48-1.66-20.8-3.59-41.7-5.83-62.92.08.11.14.23.21.34,3.93,6.7,4.46,13.14,6.19,20.71a27.56,27.56,0,0,0,1.26,4.19c.23.59.51,1.2.82,1.81a59.19,59.19,0,0,0,3.9,5.83c1.8,2.58,3.72,5.08,5.57,7.61a3.52,3.52,0,0,0,2.21,1.71,2.66,2.66,0,0,0,2.22-1.28l.1-.15c-.58,2.84-.7,5.73,1.05,8.34a21.11,21.11,0,0,0,5.35,5.23,39.7,39.7,0,0,0,5.19,3.37,20.17,20.17,0,0,0,9.89,2.15,2.83,2.83,0,0,1-1.49,1c-.76.22-1.62.29-2.39.45-4.05.86-7.22,4.94-11.33,4.56a9.06,9.06,0,0,1-4.38-2,24.17,24.17,0,0,1-6.11-6.52c-2-3.15-3.28-6.75-4.9-10.09q-1.08-2.49-2.15-5a29.94,29.94,0,0,1-2.26-6.18c-.25-1.53-.17-3.08-.3-4.62-.09-1-.16-1.86-.27-2.73a14.22,14.22,0,0,1-.22,4.47,14.08,14.08,0,0,1-.69,1.85c-1,2.29-1.49,4.51-2.46,6.8l1.64,21h0l2.12,27.07a150.7,150.7,0,0,0,13.3-17.78,14.22,14.22,0,0,1,8.24-6,25.77,25.77,0,0,0,2.49-.68,2.07,2.07,0,0,0,.66-.34,25,25,0,0,1,9-4.27c4.32-1.25,8.83-2.12,12.69-4.38,5.43-3.17,8.94-8.72,13-13.51s7.41-7.85,15.39-9.8l8.58-2.71c4.08-1.47,8.45-2.31,11.46-6.11a2.14,2.14,0,0,0,.2-.32c2.84-5.26-.4-8.19-4.32-10.21.71.25,1.4.52,2.09.79,2.31.92,5.31,1.83,6.6-1.21A5.89,5.89,0,0,0,476.4,55.23ZM32.6,59.29a28.81,28.81,0,0,1,9,1.44C39.28,60.81,36.26,59.77,32.6,59.29Zm253.92,70.38c-1.45,3.77-2.39,14-2.39,12a31.73,31.73,0,0,1,2.38-12Zm-22.14,23a33.68,33.68,0,0,0-2.85-11.57c-.39-.53-.77-1.39-1.38-2.4-.14-.2-.27-.4-.42-.59a18.27,18.27,0,0,0-3-3.23,13,13,0,0,1,3.46,3.82,19.1,19.1,0,0,1,1.38,2.4,1,1,0,0,0,1.6.3l5.1-4.39c-.78.72-1.44,1.33-1.9,1.8a13.49,13.49,0,0,0-2.45,2.86C262.55,143.58,264.5,150.3,264.38,152.64ZM295.57,36.06c.64-.13,1.29-.24,1.93-.34Zm3.61-.61c1.32-.21,1.93-.28,1.21-.14Zm20,9.68a71.57,71.57,0,0,0-8.78.18C309.53,45,314.14,44.78,319.16,45.13Zm-75.48,3.44,1.87-.59.33,0C245.77,48,245,48.21,243.68,48.57ZM286.82,64l-.33-.46c.13.14.24.28.37.43Zm-54-12c-1.31.41-2.62.83-3.92,1.26,5.85-2.14,11.6-3.76,14.66-4.62Zm67.31,5.74-.57.18v0C299.8,57.77,300,57.72,300.17,57.69ZM228.9,53.22c-5.3,1.92-10.7,4.26-14.26,6.78a33.76,33.76,0,0,1,2.86-1.9A58.09,58.09,0,0,1,228.9,53.22Zm10.22,76.3c-1.14,0-2.28.12-3.41.25A29.91,29.91,0,0,1,239.12,129.52Zm17.43,5.22c-3.67-2.67-4.74-2.47-7-3.83A21.8,21.8,0,0,1,256.55,134.74ZM274,132l-5.7,4.91C269.83,135.54,271.9,133.77,274,132ZM418.5,39.43c.14.18.1.16,0,0ZM437.24,66c-.06.53-1-.79,0-2.65A5.59,5.59,0,0,1,437.24,66Z"/><path class="cls-1" d="M312.3,207.44,162.41,218.68A56.8,56.8,0,0,0,176.79,226a8.91,8.91,0,0,0-1.46.59,1,1,0,0,1,0-.17c-6-1.43-14,1.28-17.82,6.07-3.65,4.51-4.63,10.54-5.49,16.28q-.79,5.3-1.58,10.59a22.86,22.86,0,0,1-2,7.39,17,17,0,0,1-3.2,4.09c-.95.93-2,1.83-2.94,2.75a56.21,56.21,0,0,0-16.55,31.15,36.06,36.06,0,0,0-.23,11.86c.85,5.09,3.15,9.83,5.63,14.35a68.15,68.15,0,0,0,6.6,10.26c10.89,13.56,29,19.4,46.42,20.11,8,.33,17-.65,22.67-6.28A35.49,35.49,0,0,0,222.19,346a69.87,69.87,0,0,0,6.44-7.86,27.08,27.08,0,0,0,3.86-7c2.71-8.48,2.17-7.47,2.17-14.34,0-16.42-15.25-21.11-21.29-25.63-3.62-2.7-11.31-9.94-7.08-10.22v0c1,0,2,0,3,0,4.76-.17,9.27-1.11,13.19-4,6.08-4.42,6.07-7.93,6.3-11.57A141.84,141.84,0,0,0,245.9,265a146.9,146.9,0,0,0,18.33-3.45,86.16,86.16,0,0,1,11.21,39.81,2.16,2.16,0,0,0,3.43,1.56l.14-.1,3.11-8.15c.58,1.73,1.19,3.44,1.86,5.15a31,31,0,0,0-5,3l-.05.13a26.74,26.74,0,0,0-4.87,36c1.91,2.72,4.36,5.16,5.4,8.3.74,2.24.71,4.72,1.71,6.86,1.28,2.72,4,4.42,6.72,5.75a54.81,54.81,0,0,0,16.76,5.11h0a54.76,54.76,0,0,0,5.58.47,73.43,73.43,0,0,0,8.52-.28c6.32-.53,12.71-1.63,18.33-4.55,5.06-2.63,9.45-6.92,11.36-12.23a.69.69,0,0,0,0-.13,14.44,14.44,0,0,0,.51-1.7,13.89,13.89,0,0,0,.33-1.86c.06-.66.09-1.42.12-2.25.18-4.58.12-11.11,2-13.39,3.35-1.09,7.89-3.47,13.66-8.4,1.21-1,3.49-2.57,5-4a41.33,41.33,0,0,0,8.22-9.67l.28-.44c.36-.54,1.38-2.11,2.58-4.06a1.62,1.62,0,0,1,.1-.18,55.81,55.81,0,0,0,7.54-15.93,69.37,69.37,0,0,0,2.82-18.56c0-7.72-1.75-15.09-6.26-21.1a3.89,3.89,0,0,0-.58-.6l-1.14-2a63,63,0,0,0-6.16-9.52l-.12-.14a39.71,39.71,0,0,0-10.62-8.62A40.71,40.71,0,0,0,351.79,220a14.19,14.19,0,0,0-2.84-.3l-.71,0c-2.95.16-5.9.54-8.84.94,11.61-3.23,22.76-8.11,31.29-15.31,1-.89,1.65-2.42.4-2.33H371a27.5,27.5,0,0,1-4.88.63Zm-7.47,157,.68.08.09,0Z"/><path class="cls-1" d="M348.53,348.16a13.1,13.1,0,0,0,.65-2.13,11.36,11.36,0,0,0,.19-1.43"/><path class="cls-1" d="M305.6,364.58l-.77-.12.68.08Z"/><path class="cls-1" d="M213.41,61l0,0"/><path class="cls-1" d="M245.89,47.94h0"/><path class="cls-1" d="M243.68,48.57l-.08,0"/><path class="cls-1" d="M228.94,53.2h0"/><path class="cls-1" d="M214.64,60l-.63.47"/><path class="cls-1" d="M213.41,61l0,0"/><path class="cls-1" d="M295,36.17l.62-.11"/><path class="cls-1" d="M298.78,35.51l-.4.07"/><path class="cls-1" d="M300.39,35.31l-1.21.14C300.5,35.24,301.11,35.17,300.39,35.31Z"/><path class="cls-1" d="M299.18,35.45a2.76,2.76,0,0,1-.4.06"/><path class="cls-1" d="M298.78,35.51l-.4.07"/><path class="cls-1" d="M295,36.17l.62-.11"/><path class="cls-1" d="M295,36.17l-.09,0"/><path class="cls-1" d="M281.27,39.53h0"/><path class="cls-1" d="M319.16,45.13a71.57,71.57,0,0,0-8.78.18C309.53,45,314.14,44.78,319.16,45.13Z"/><path class="cls-1" d="M328.82,271.71Z"/><path class="cls-1" d="M328.82,271.71h0v0h0"/><path class="cls-1" d="M377.54,234.38l-.07,0a16,16,0,0,0-6.39-2,23.34,23.34,0,0,0-5.08.13c-9.45,1.18-18.05,6.64-24.27,13.87-5.83,6.79-12.42,24.15-12.9,25.31"/><path class="cls-1" d="M307.34,332.14c2.46-3.5,4.8-6.49,5.66-7.58"/><path class="cls-1" d="M313.17,324.35l.17-.18,0-.06"/><path class="cls-1" d="M281.37,124.15a12.29,12.29,0,0,0,4.5,4.77"/><path class="cls-1" d="M194.13,275.83c-.69-.4,1.81,1.21,2.64,1.74a22,22,0,0,0,6.81,3.05,13.44,13.44,0,0,0,2.71.32"/><path class="cls-1" d="M182.71,260s0-1,0-1"/><path class="cls-1" d="M377,75.72l0,.08a.34.34,0,0,0,0,.1l0-.18a17.8,17.8,0,0,0-.72-3.33l.72,3.33"/><path class="cls-1" d="M392.6,78c0,.21,0,.42,0,.63"/><path class="cls-1" d="M392.62,76.07v.15c0,.33,0,.66,0,1a.48.48,0,0,1,0,.12c0,.22,0,.43,0,.64"/><path class="cls-1" d="M392.59,78.61c0-.2,0-.42,0-.63"/><path class="cls-1" d="M392.59,78.61v.07"/><path class="cls-1" d="M391.44,53v0"/><path class="cls-1" d="M418.5,39.43c.14.18.1.16,0,0Z"/><path class="cls-1" d="M418.5,39.43l0,0"/><line class="cls-1" x1="436.04" y1="59.14" x2="436.04" y2="59.13"/><path class="cls-1" d="M437.24,66c-.06.53-1-.79,0-2.65A5.59,5.59,0,0,1,437.24,66Z"/><path class="cls-1" d="M327.27,228.72c-10.77,5.33-20.6,15.59-22.47,27.45"/><path class="cls-1" d="M304,259.69v.66"/><path class="cls-1" d="M202.89,292c2.33,3.25,5.65,5.6,8.94,7.85s6.68,4.52,9.16,7.64,4,7.33,2.85,11.16"/><path class="cls-1" d="M223.47,323.55l-.28.3"/><path class="cls-2" d="M431,46a5.31,5.31,0,0,1-4.69-1.06c-2.65-2.47,5,7,3.51,4.93C429.42,47.61,428.91,47.36,431,46Zm1.63-.41c-.49.1-1,.19-1.46.3L431,46q.74-.15,1.56-.39ZM436,59.14a34.54,34.54,0,0,1,1.23,4.21c-1,1.86-.07,3.19,0,2.66a5.63,5.63,0,0,0,0-2.66,8.59,8.59,0,0,1,3.87-3.29c-2,.58-4.07.8-5-.83C436.05,59.16,436,59.13,436,59.14ZM418.48,39.43c.11.16.15.17,0,0ZM392.64,72.82c0,.06,0,.34,0,.92v2.08C392.64,74.22,392.64,73,392.64,72.82Zm-1.5,15.1c1.09-1.66,1.3-4.23,1.37-5.7,0-.62.06-2,.08-3.5a29,29,0,0,1-.79,6.34C391.57,86,391.32,87,391.14,87.92Zm50-27.88c.54-.16,1.08-.35,1.57-.54C450.88,56.36,460,58,468.27,61c-.86-.45-1.76-.86-2.64-1.24a22,22,0,0,0-7.36-1.69c-4.44-.25-8.06-1-12.26.19A26.08,26.08,0,0,0,441.17,60Zm27.11,1c3.87,2,7,5,4.22,10.16a3.7,3.7,0,0,1-.21.33c-3,3.8-7.38,4.64-11.46,6.11l-8.58,2.71c-8,2-11.31,5-15.39,9.8s-7.59,10.34-13,13.51c-3.86,2.25-8.37,3.12-12.68,4.37v0a2.81,2.81,0,0,0,1.48-1,20.11,20.11,0,0,1-9.89-2.15,39.89,39.89,0,0,1-5.18-3.36,21.16,21.16,0,0,1-5.36-5.23c-1.74-2.61-1.63-5.48-1.06-8.32l-.09.13a2.65,2.65,0,0,1-2.22,1.27,3.46,3.46,0,0,1-2.21-1.71c-1.86-2.53-3.77-5-5.57-7.6a59.81,59.81,0,0,1-3.89-5.83,19.21,19.21,0,0,1-.83-1.82,27.89,27.89,0,0,1-1.25-4.19c-1.74-7.57-2.27-14-6.2-20.71-.07-.1-.13-.22-.21-.33q-.6-5.91-1.26-11.85a9.28,9.28,0,0,1,8.72-.2C382.7,38.43,391,52.43,391.43,53a.1.1,0,0,1,0,0c-1.16-7,4.1-11.53,10.22-13.54,5.66-1.87,12.13-3.84,16.77-.1l0,.06c-.44-.67-1.84-3.33,2.72-4.53,2.08-.53,10.29-2,12.17-2.28a46.91,46.91,0,0,1,5.28-.89c12.31-.87,16.27,3.54,18.24,5.3s3.66,4.39,3.44,6.87a3.52,3.52,0,0,0-1.21-.23c-7.34-.08-14.19-.37-20.1.43a41,41,0,0,0-6.38,1.5C441.9,43.76,450.86,44,460.29,44c0-.05,0-.1,0-.15.41.13.81.32,1.28.48,1.86.61,5.22,1.82,6.63,2.44,3.14,1.36,5.11,3.32,8.17,8.45a5.87,5.87,0,0,1,.48,5.29c-1.29,3-4.3,2.13-6.61,1.22C469.61,61.49,468.94,61.24,468.28,61Z"/><path class="cls-2" d="M418.48,39.43c.15.17.11.16,0,0Z"/><path class="cls-3" d="M411.14,108v0a24.77,24.77,0,0,0-9,4.28,1.71,1.71,0,0,1-.66.33c-1.81.49-.08.12-2.48.69a14.15,14.15,0,0,0-8.25,6,151.73,151.73,0,0,1-13.29,17.78L375.33,110l-1.65-21c1-2.29,1.48-4.51,2.45-6.8a13.24,13.24,0,0,0,.69-1.85,13.57,13.57,0,0,0,.24-4.27c.11.81.18,1.63.25,2.53.14,1.54,0,3.09.31,4.61a30,30,0,0,0,2.25,6.19c.72,1.65,1.43,3.31,2.15,5,1.62,3.35,2.88,6.94,4.91,10.1A23.94,23.94,0,0,0,393,111a9.06,9.06,0,0,0,4.39,2c4.1.38,7.28-3.71,11.32-4.56A23.67,23.67,0,0,0,411.14,108Z"/><path class="cls-4" d="M386.07,293.19c4.39-12.1,7.37-25.54,3.23-37.72a57.24,57.24,0,0,0-4.41-9.42,4.28,4.28,0,0,1,.57.59c4.51,6,6.27,13.39,6.27,21.12a69.64,69.64,0,0,1-2.82,18.55,56.29,56.29,0,0,1-7.79,16.31A61.46,61.46,0,0,0,386.07,293.19Z"/><path class="cls-4" d="M351.51,329c-1.9,2.29-1.85,8.79-2,13.37-11,5.48-22.1,3.12-31.89-2.65l1.78-2.42a69,69,0,0,0,3.64-6.07l2.85-5.85A61.71,61.71,0,0,0,332,302.82c.41-5.55,1.28-10.18,2-14.95a87,87,0,0,1,5.17-15c.47-1,1.24-2.53,1.73-3.49,2.56-5,4.83-10.21,8.16-14.75a37.93,37.93,0,0,1,8.72-8.57,23.12,23.12,0,0,1,11.78-4.58c5-.27,8.75,0,13.29,3a21.07,21.07,0,0,1,2.08,1.56h0a57.24,57.24,0,0,1,4.41,9.42c4.14,12.18,1.16,25.62-3.23,37.72a61.46,61.46,0,0,1-4.95,9.43s0,0,0,0a95.94,95.94,0,0,1-15.78,17.51c-7.8,6.92-11.39,7.63-12.79,8.09A2.36,2.36,0,0,0,351.51,329Z"/><path class="cls-5" d="M307.33,332.15c-10.61-9.42-18.62-21.52-21.67-28.36q-.9-2-1.68-4a31.13,31.13,0,0,1,5.7-2.09,4,4,0,0,0,3.19-3.46c.57-13.28,1.15-26.5,4.28-38.89l.09-.39a.06.06,0,0,1,0,0c2.72-7,.28-1.54,3-7.7a18.73,18.73,0,0,1,1.64-2.94c1.89-2.77,3.49-5.9,5.83-8.4a36.43,36.43,0,0,1,5-4.14c4.1-3,8.27-6,12.91-8,1.07-.18,2.14-.37,3.19-.59,3.51-.69,7-1.52,10.53-2.5,2.93-.4,5.89-.77,8.85-.94l.64,0a14.32,14.32,0,0,1,2.91.31,40.55,40.55,0,0,1,15,5.71,39.36,39.36,0,0,1,10.6,8.6h0l.14.16a62.32,62.32,0,0,1,6.15,9.51c.38.68.77,1.36,1.14,2a21.07,21.07,0,0,0-2.08-1.56c-4.54-3-8.32-3.26-13.29-3a23.12,23.12,0,0,0-11.78,4.58,37.93,37.93,0,0,0-8.72,8.57c-3.33,4.54-5.6,9.77-8.16,14.75-.49,1-1.26,2.53-1.73,3.49a87,87,0,0,0-5.17,15c-.68,4.77-1.55,9.4-2,14.95a61.71,61.71,0,0,1-6.13,22.54L323,331.21a69,69,0,0,1-3.64,6.07l-1.78,2.42A66.7,66.7,0,0,1,307.33,332.15Z"/><path class="cls-5" d="M365.33,320.15a95.94,95.94,0,0,0,15.78-17.51c-1.13,1.86-2.08,3.31-2.44,3.84-.08.15-.18.3-.26.44a41.38,41.38,0,0,1-8.23,9.67c-1.51,1.41-3.8,3-5,4-5.64,4.81-10.1,7.2-13.42,8.32l-.26.09a2.36,2.36,0,0,1,1-.74C353.94,327.78,357.53,327.07,365.33,320.15Z"/><path class="cls-6" d="M379.52,186.55c.31,5.65-.68,12.28-5.49,15.26a10.24,10.24,0,0,1-3,1.22l-59.66,4.48q-34.5,2.42-69,4.83v-.14c-10.4-2.29-20.85-9.86-28.35-17.42A88.63,88.63,0,0,1,204.29,183c11.12-.4,21.82-1,32.85-1.28,35.26-.81,71.07-4.51,104.71-3.48,5.06.16,10.89-1.39,13.25-5.87.77-1.45,1.23-7,1.15-8.68C354,121.81,352.78,104.74,351,61.87c-.23-5.25-.61-30.16-2.08-35.27-.51-1.81-1-4.13-3.85-5.43-2.06-1-5.51-.54-7.78-.52q-20.43.11-40.86.3-40.68.39-81.35,1.12-23,.41-45.91.92c-1.59,0-3.35.15-4.43,1.3a5.92,5.92,0,0,0-1.13,3.88,204,204,0,0,0,.67,22.11c1,14.72,1.73,29.52,2.41,44.34-1.12-3.64-2.22-7.28-3.33-10.9-7.67-25.22-15.35-50.45-21.71-76,2.45-2.55,15.78-1.44,15.78-1.44C269.68,7.72,284.69,7.69,284.69,7.69c14.15.09,28.3.18,42.41-.8,7.23-.51,14.57-1.28,21.65.27,14.38,3.13,16.94,12.68,18.35,25.4l.3,2.74A7.43,7.43,0,0,0,365,37.78c-1.44,3.14,1.73,6.17,3.7,9.37,2.24,21.22,4.17,42.12,5.83,62.92C376.52,135.62,378.18,161,379.52,186.55Z"/><path d="M371.08,203c1.26-.08.65,1.45-.4,2.34-8.53,7.2-19.68,12.06-31.29,15.3l-1.1.16a56.81,56.81,0,0,0-10.44,2.1c-.74.24-1.46.53-2.18.83-5,.88-10.1,1.47-15.18,1.94.86-1.71,1.61-3.38,2.25-5l-31.16.59c-.43,2.1-2.24,4.14-4.47,5.9a2.26,2.26,0,0,0-.26-.2l-41.72,2c.42.31.84.62,1.25.95l-7.08.31-5.29.23a10.57,10.57,0,0,0-.71-.88c-.33-.37-6.92-.14-15-.16-10.86,0-24.43-.49-29.19-3.43a3,3,0,0,0-2-.13l-.29.09a58,58,0,0,1-14.39-7.35l149-11.18,54.71-3.83a29.43,29.43,0,0,0,5-.65Z"/><path d="M311.38,207.51,371,203a29.43,29.43,0,0,1-5,.65Z"/><path class="cls-2" d="M367.4,35.3q.66,5.94,1.26,11.85c-2-3.2-5.14-6.23-3.7-9.37A7.43,7.43,0,0,1,367.4,35.3Z"/><path class="cls-7" d="M316.79,132.68c2.08,3.21,6.85-2.27,10.08-4.68a63.7,63.7,0,0,0,4.74-4.8c2.19-2.32,4.17-6.69,4.93-8.55a47.22,47.22,0,0,0,2.78-11.88c1.88-13.9-2.28-28.9-4.07-35.32a36.21,36.21,0,0,0-1.7-4.73l1.15.35a6.21,6.21,0,0,0,2.65.4c2.35-.33,3.47-3.21,3.23-5.56-.6-5.94-6.79-9.15-12.37-11.26a33.76,33.76,0,0,0-8.52-1.49,87.78,87.78,0,0,1,9.39.93,2.8,2.8,0,0,0,1.64-.22,2.4,2.4,0,0,0,1-1.35,6.44,6.44,0,0,0-1.37-6.12,44.26,44.26,0,0,0-7.74-6.58c-7.1-4.17-12.12-5.66-20.34-5.85-5.23-.13-10.36,1.35-15.37,2.82s-10.29,3.32-12.42,7.92a3.55,3.55,0,0,0-.4,1.91,3,3,0,0,0,2.93,2.3c1.33.07,2.85-1.06,4.16-1.36a5.89,5.89,0,0,0-3,2c-1.41,2.33,1.76,5.38,2.68,7.94.81,2.25,1.46,4.6,2.24,6.86-1.52-4.28-2.74-8.77-5.49-12.32C274.73,40.31,270.4,38,266,36.16a54.92,54.92,0,0,0-8.47-2.8,45.64,45.64,0,0,0-42.46,12.33,23.79,23.79,0,0,0-5,7.06,32.87,32.87,0,0,0-1.63,5.7c-.29,1.35-.46,3,.68,3.84,1.31.89,3-.27,4.21-1.29.18-.16.39-.33.59-.48a22.44,22.44,0,0,0-7.35,9.68c-.9,2.47-1.74,15.55,3.26,14l0,.12c-2.87,17.64.79,36.12,11.59,50.36.51,1.15,1-.54,5.11-2.41a30.49,30.49,0,0,1,8.19-2.39l.2,0a43.15,43.15,0,0,1,5.46-.34h.23a36.06,36.06,0,0,1,3.62.25,25.19,25.19,0,0,1,5.2,1.15h0c2.25,1.33,3.33,1.18,6.9,3.74l.12.09a18,18,0,0,1,3.18,3.34c.16.21.3.42.44.64h0c.58,1,.95,1.79,1.32,2.31,0,0,0,0,0,0a33.34,33.34,0,0,1,2.84,11.57c-.1,1.83-.18,3.62-.33,5.39a24.33,24.33,0,0,0,.33-5.39c.14-2.34-1.81-9.06-.49-11a13,13,0,0,1,2.46-2.87c.45-.46,1.07-1.06,1.84-1.75l.21-.19,5.55-4.78.27-.23.29-.25c2.27-1.9,4.5-3.75,6-5,1.88-1.58,3.56,3.49,6,3.14a20.39,20.39,0,0,1,3.47-5.52c4.18-4.69,11.41-7,17-4.21.19.09.36.19.54.29,3.29,2.61,6.87,7.52,8.95,12a4,4,0,0,0,.26.46ZM264,158.09c-.74,4.83-2.25,9.93-2,9.4A30.3,30.3,0,0,0,264,158.09Zm20.13-16.15c.19-.39,1.08-8.89,2.36-12.25a31.25,31.25,0,0,0-2.38,12A1,1,0,0,0,284.15,141.94Zm72.1,21.75c.08,1.65-.38,7.23-1.15,8.68-2.36,4.48-8.19,6-13.25,5.87-33.64-1-69.45,2.67-104.71,3.48-11,.25-21.73.88-32.85,1.28a149,149,0,0,1-8.67-14.19c-12.7-23.37-21.12-48.73-29-74.18h0C166,79.8,165.23,65,164.25,50.28a204,204,0,0,1-.67-22.11,5.92,5.92,0,0,1,1.13-3.88c1.08-1.15,2.84-1.27,4.43-1.3q23-.51,45.91-.92,40.68-.72,81.35-1.12,20.43-.19,40.86-.3c2.27,0,5.72-.43,7.78.52,2.82,1.3,3.34,3.62,3.85,5.43,1.47,5.11,1.85,30,2.08,35.27C352.78,104.74,354,121.81,356.25,163.69Zm-51.66-5.37c6.09-.73,10-9.18,8.79-18.87s-7.15-17-13.24-16.22-10,9.19-8.79,18.87S298.5,159.06,304.59,158.32Z"/><path class="cls-5" d="M349.48,342.35c.18-4.58.13-11.08,2-13.37l.26-.09c-2.69,4.26-1.71,10.49-2.41,15.69C349.42,343.93,349.46,343.17,349.48,342.35Z"/><path class="cls-8" d="M349.48,342.35c0,.82-.06,1.58-.12,2.23a16,16,0,0,1-.33,1.88,15.84,15.84,0,0,1-.58,1.89c-2.71,6.66-10.56,11.13-17.36,13.83a42,42,0,0,1-12.3,2.85,67.27,67.27,0,0,1-13.27-.47h0c-2.29-.83-3.36-2.65-3.08-5.34a6,6,0,0,1,2.95-4.43c3.56-2.21,10.73-13,10.73-13l1.5-2C327.38,345.47,338.45,347.83,349.48,342.35Z"/><path class="cls-4" d="M349,346.46a16,16,0,0,0,.33-1.88,11.66,11.66,0,0,1-.19,1.46,13.17,13.17,0,0,1-.72,2.31A15.84,15.84,0,0,0,349,346.46Z"/><path class="cls-5" d="M348.45,348.35c-1.91,5.29-6.3,9.56-11.34,12.18-5.62,2.92-12,4-18.32,4.54v0a42,42,0,0,0,12.3-2.85C337.89,359.48,345.74,355,348.45,348.35Z"/><path class="cls-9" d="M298.38,35.59c-.33,0-.66.09-1,.15Zm-1.09.17-1,.18Zm-16.08,3.8c-1.31.3-2.83,1.43-4.16,1.36a3,3,0,0,1-2.93-2.3,3.55,3.55,0,0,1,.4-1.91c2.13-4.6,7.55-6.49,12.42-7.92s10.14-2.95,15.37-2.82c8.22.19,13.24,1.68,20.34,5.85a44.26,44.26,0,0,1,7.74,6.58,6.44,6.44,0,0,1,1.37,6.12,2.4,2.4,0,0,1-1,1.35,2.8,2.8,0,0,1-1.64.22,87.78,87.78,0,0,0-9.39-.93,33.76,33.76,0,0,1,8.52,1.49C333.79,48.76,340,52,340.58,57.91c.24,2.35-.88,5.23-3.23,5.56a6.21,6.21,0,0,1-2.65-.4l-1.15-.35c-.35-.84-.78-1.83-1.33-3L299,53.59c.23,1.54.42,2.94.61,4.23a39.45,39.45,0,0,0-5,2A55.15,55.15,0,0,0,286.87,64h0c-.13-.17-.26-.32-.39-.47l0,0a29,29,0,0,1-3.25-6.81h0a2.29,2.29,0,0,1-.09-.28c-.78-2.26-1.43-4.61-2.24-6.86-.92-2.56-4.09-5.61-2.68-7.94A5.89,5.89,0,0,1,281.21,39.56Zm38.28,5.59c-5.16-.37-10-.15-9.12.16A75.11,75.11,0,0,1,319.49,45.15Zm-24.21-9c-3.11.57-6.82,1.31-8.95,2-1.25.37-3.3.8-5.06,1.46C285.54,38.58,290.35,37.11,295.28,36.12Zm3.24-.55c.62-.1,1.25-.18,1.86-.25a1.26,1.26,0,0,0,.29-.08C300.62,35.22,299.78,35.35,298.52,35.57Z"/><path class="cls-2" d="M335.25,67.45c1.79,6.42,5.95,21.42,4.07,35.32a47.22,47.22,0,0,1-2.78,11.88c-.76,1.86-2.74,6.23-4.93,8.55a63.7,63.7,0,0,1-4.74,4.8c-3.23,2.41-8,7.89-10.08,4.68h0a32.43,32.43,0,0,0-2.19-4.63c-1.71-3.11-3.94-6.1-7-7.81a7.37,7.37,0,0,0-4.08-1.9c3.8,0,7.68,4,10.53,1.45,2.66-2.38,3.65-6.09,4.28-9.61,1.75-9.6,1.9-19.61-.63-29a45.07,45.07,0,0,0-12.45-21.33c-1.51-1.4-2.41-2.43-4.45-2.22-.2,0-.42.06-.63.1a25.82,25.82,0,0,1,7.66-1.21c5.42,0,10.7,1.58,15.88,3.18l9.87,3A36.21,36.21,0,0,1,335.25,67.45Z"/><path d="M338.29,220.83l1.1-.16c-3.49,1-7,1.81-10.53,2.5-1.05.22-2.12.41-3.19.59.72-.3,1.44-.59,2.18-.83A56.81,56.81,0,0,1,338.29,220.83Z"/><path class="cls-9" d="M333.55,62.72l-9.87-3c-5.18-1.6-10.46-3.21-15.88-3.18a25.82,25.82,0,0,0-7.66,1.21l-.07,0-.48.1c-.19-1.29-.38-2.69-.61-4.23l33.24,6.1C332.77,60.89,333.2,61.88,333.55,62.72Z"/><path class="cls-10" d="M318.79,365v0a73.69,73.69,0,0,1-8.53.29c-1.87-.06-3.73-.22-5.58-.46h0c-2.74-1.43-5.35-8.35-5.3-11.44a33.74,33.74,0,0,1,1-9.09c1-3.29,4-8.1,6.92-12.21a66.7,66.7,0,0,0,10.26,7.55l-1.5,2s-7.17,10.84-10.73,13a6,6,0,0,0-2.95,4.43c-.28,2.69.79,4.51,3.08,5.34l-.67-.08.78.12-.08,0A67.27,67.27,0,0,0,318.79,365Z"/><path class="cls-2" d="M317.67,81.15c2.53,9.42,2.38,19.43.63,29-.63,3.52-1.62,7.23-4.28,9.61-2.85,2.54-6.73-1.43-10.53-1.45-1.87,0-.58-4.24-.36-6.09a54,54,0,0,1,1.22-5.47,13.13,13.13,0,0,0,.25-5.29,11.94,11.94,0,0,0-4.77-7.1A28.32,28.32,0,0,0,292,90.55c-2.07-.73-5.54-.83-6-3a6,6,0,0,1,0-2.11c1.24-5.47,9.34-5.69,13.72-9.17a6,6,0,0,0,2.26-3,7.61,7.61,0,0,0-.33-3.62c-.8-3.29-1.27-6.65-2-11.81l.47-.16.07,0c.21,0,.43-.08.63-.1,2-.21,2.94.82,4.45,2.22A45.07,45.07,0,0,1,317.67,81.15Z"/><path class="cls-9" d="M319.49,45.15a75.11,75.11,0,0,0-9.12.16C309.5,45,314.33,44.78,319.49,45.15Z"/><path class="cls-2" d="M316.78,132.68a4,4,0,0,1-.26-.46c-2.08-4.46-5.66-9.37-8.95-12,3.08,1.71,5.31,4.7,7,7.81A32.43,32.43,0,0,1,316.78,132.68Z"/><path d="M313.38,139.45c1.23,9.69-2.7,18.14-8.79,18.87s-12-6.53-13.24-16.22,2.71-18.13,8.79-18.87S312.15,129.76,313.38,139.45Z"/><path d="M281.58,221.33l31.16-.59c-.64,1.58-1.39,3.25-2.25,5q-4.53.41-9.08.73-11.67.85-23.37,1.51c-.3-.25-.61-.48-.93-.71C279.34,225.47,281.15,223.43,281.58,221.33Z"/><path class="cls-7" d="M307.57,120.24c-.18-.1-.35-.2-.54-.29-5.64-2.79-12.87-.48-17,4.21a20.39,20.39,0,0,0-3.47,5.52c-2.44.35-4.12-4.72-6-3.14-1.52,1.29-3.75,3.14-6,5,3.84-3.32,6.07-6.2,7.31-9,1.08,2.61,2.3,6.3,4.07,5.74,2.32-.72,2.47-5.65,5.36-7.39,3.27-2,8.46-2.62,12.26-2.61A7.37,7.37,0,0,1,307.57,120.24Z"/><path class="cls-11" d="M305.6,364.59l-.78-.12.67.08h0Z"/><path class="cls-12" d="M310.49,225.7c-3.77,7.49-9.55,15.77-15.58,20.8-.45-.61-.94-1.2-1.43-1.79-5.3-6.25-9.15-11.84-15.44-16.77q11.68-.66,23.37-1.51Q306,226.1,310.49,225.7Z"/><path class="cls-10" d="M304.68,364.89h0a54.36,54.36,0,0,1-16.77-5.13c-2.69-1.32-5.43-3-6.71-5.75-1-2.13-1-4.61-1.71-6.85-1.05-3.15-3.49-5.59-5.4-8.3a26.72,26.72,0,0,1,4.86-36l.05-.13a31.56,31.56,0,0,1,5-3q.78,2,1.68,4c3,6.84,11.06,18.94,21.67,28.36-2.88,4.11-5.92,8.92-6.92,12.21a33.74,33.74,0,0,0-1,9.09C299.33,356.54,301.94,363.46,304.68,364.89Z"/><path d="M304.6,101.49a13.13,13.13,0,0,1-.25,5.29,54,54,0,0,0-1.22,5.47c-.22,1.85-1.51,6.06.36,6.09-3.8,0-9,.65-12.26,2.61-2.89,1.74-3,6.67-5.36,7.39-1.77.56-3-3.13-4.07-5.74h0a18,18,0,0,0,1.33-8.61c-.21-4-.59-8-1.1-12.06-.34-2.71-.68-5.41-1-8.12-.8-6.41.4-14.9-4.86-20.56a21.18,21.18,0,0,1,1.54-1.89c2,.63,3.94.75,5.45-.26a17.36,17.36,0,0,0,3.62-4.1,19.38,19.38,0,0,1,1.3-1.55,27,27,0,0,1,11.56-7.56c.73,5.16,1.2,8.52,2,11.81a7.61,7.61,0,0,1,.33,3.62,6,6,0,0,1-2.26,3c-4.38,3.48-12.48,3.7-13.72,9.17a6,6,0,0,0,0,2.11c.5,2.14,4,2.24,6,3a28.32,28.32,0,0,1,7.82,3.84A11.94,11.94,0,0,1,304.6,101.49Z"/><path class="cls-9" d="M298.52,35.57c1.26-.22,2.1-.35,2.15-.33a1.26,1.26,0,0,1-.29.08C299.77,35.39,299.14,35.47,298.52,35.57Z"/><path class="cls-9" d="M300.07,57.72l-.47.16s0,0,0-.06Z"/><path class="cls-9" d="M299.59,57.82s0,0,0,.06A27,27,0,0,0,288,65.44h0s0,0,0-.05c-.38-.52-.75-1-1.11-1.43a55.15,55.15,0,0,1,7.71-4.08A39.45,39.45,0,0,1,299.59,57.82Z"/><path class="cls-9" d="M297.4,35.74c.32-.06.65-.11,1-.15Z"/><path class="cls-13" d="M296.63,249.66a10.82,10.82,0,0,1,.62,5.24.06.06,0,0,0,0,0l-15.13,39.69c-4-11.82-6-24.29-7.86-36.65h0a89.48,89.48,0,0,0,18.89-10.09c.58-.42,1.18-.88,1.77-1.38A11.85,11.85,0,0,1,296.63,249.66Z"/><path class="cls-13" d="M297.24,254.94l-.09.39c-3.13,12.39-3.71,25.61-4.28,38.89a4,4,0,0,1-3.19,3.46,31.13,31.13,0,0,0-5.7,2.09c-.68-1.7-1.29-3.41-1.87-5.14Z"/><path class="cls-9" d="M296.29,35.94l1-.18Z"/><path class="cls-12" d="M274.25,258h0c-2.55,1-5.13,2-7.74,2.84-.61.22-1.39.44-2.28.68h0a99.49,99.49,0,0,0-17.7-22.82,178.47,178.47,0,0,0,21.24-6.18,38,38,0,0,0,8.24-4.45l2-.11c6.29,4.93,10.14,10.52,15.44,16.77.49.59,1,1.18,1.43,1.79-.59.5-1.19,1-1.77,1.38A89.48,89.48,0,0,1,274.25,258Z"/><path class="cls-9" d="M295.28,36.12c-4.93,1-9.74,2.46-14,3.42,1.76-.66,3.81-1.09,5.06-1.46C288.46,37.43,292.17,36.69,295.28,36.12Z"/><path class="cls-9" d="M288,65.43h0a19.38,19.38,0,0,0-1.3,1.55,17.36,17.36,0,0,1-3.62,4.1c-1.51,1-3.43.89-5.45.26a36.12,36.12,0,0,1,4.62-4.21A54,54,0,0,1,286.82,64a13.89,13.89,0,0,0,1.16,1.4S288,65.41,288,65.43Z"/><path class="cls-9" d="M288,65.38a13.89,13.89,0,0,1-1.16-1.4s0,0,0,0h0C287.23,64.38,287.6,64.86,288,65.38Z"/><path class="cls-9" d="M286.86,64s0,0,0,0c-.13-.17-.24-.33-.35-.5C286.6,63.63,286.73,63.78,286.86,64Z"/><path class="cls-9" d="M245.87,47.93l-.34,0-1.94.62C244.93,48.23,245.76,48,245.87,47.93ZM214,60.52c-.2.15-.41.32-.59.48-1.21,1-2.9,2.18-4.21,1.29-1.14-.79-1-2.49-.68-3.84a32.87,32.87,0,0,1,1.63-5.7,23.79,23.79,0,0,1,5-7.06,45.64,45.64,0,0,1,42.46-12.33,54.92,54.92,0,0,1,8.47,2.8c4.36,1.81,8.69,4.15,11.58,7.88,2.75,3.55,4,8,5.49,12.32a2.29,2.29,0,0,0,.09.28h0l.22.61a1.5,1.5,0,0,1-.16,1.63,2,2,0,0,1-2,.53c-5.78-2-14.18.44-10-.27a23.7,23.7,0,0,1,9.11.4,11.39,11.39,0,0,1,6.09,3.91l0,0c.11.17.22.33.35.5a54,54,0,0,0-4.53,3.16,36.12,36.12,0,0,0-4.62,4.21c-2.7-.82-5.59-2.52-8-3.54-9-3.84-16.52-3.64-26.25-2.85q-1.49.11-2.88.33a3.65,3.65,0,0,0-2.32-.43c-2,.21-4.32,1.45-6.19,2.26a56.53,56.53,0,0,0-12.28,7.27,27.66,27.66,0,0,0-7.56,8.29h0a7.06,7.06,0,0,1-2,1.37,2.72,2.72,0,0,1-.37.13h0c-5,1.55-4.16-11.53-3.26-14A22.44,22.44,0,0,1,214,60.52Zm14.53-7.15a56.94,56.94,0,0,0-11,4.73A30.79,30.79,0,0,0,214.63,60C218.09,57.55,223.3,55.28,228.48,53.37Zm15-4.74c-3.1.87-8.79,2.49-14.58,4.59,1.32-.43,2.65-.84,4-1.26C236.4,50.86,239.93,49.74,243.47,48.63Z"/><path class="cls-7" d="M284.13,141.69a31.25,31.25,0,0,1,2.38-12c-1.28,3.36-2.17,11.86-2.36,12.25A1,1,0,0,1,284.13,141.69Z"/><path class="cls-9" d="M286.45,63.46a11.39,11.39,0,0,0-6.09-3.91,23.7,23.7,0,0,0-9.11-.4c-4.16.71,4.24-1.68,10,.27a2,2,0,0,0,2-.53,1.5,1.5,0,0,0,.16-1.63l-.22-.61A29,29,0,0,0,286.45,63.46Z"/><path class="cls-14" d="M283.13,114a18,18,0,0,1-1.33,8.61,10.93,10.93,0,0,0-1-2c-6.79-9.42-8.3-21.87-8.38-33.47a26.34,26.34,0,0,1,1.42-9.87,17.8,17.8,0,0,1,2.27-4.06c5.26,5.66,4.06,14.15,4.86,20.56.36,2.71.7,5.41,1,8.12C282.54,105.93,282.92,110,283.13,114Z"/><path class="cls-15" d="M282.11,294.63c.58,1.73,1.19,3.44,1.87,5.14a31.56,31.56,0,0,0-5,3Z"/><path class="cls-15" d="M282.11,294.63,279,302.78l-.14.09a2.15,2.15,0,0,1-3.43-1.56,86.27,86.27,0,0,0-11.2-39.81c.89-.24,1.67-.46,2.28-.68,2.61-.88,5.19-1.82,7.74-2.84C276.14,270.34,278.15,282.81,282.11,294.63Z"/><path class="cls-14" d="M281.8,122.59h0c-1.24,2.78-3.47,5.66-7.31,9l-.29.25-.27.23c-2,1.7-4,3.41-5.55,4.78l-.21.19-5,4.35a1,1,0,0,1-1.61-.3s0,0,0,0a17,17,0,0,0-1.32-2.31h0a12.85,12.85,0,0,0-3.61-4h0l-.12-.09a22.2,22.2,0,0,0-6.9-3.74h0a2.85,2.85,0,0,1-1.41-2,8.74,8.74,0,0,0,3.42-1.83c2.67-2.38,3.64-6.09,4.29-9.6,1.74-9.61,1.9-19.61-.64-29a45.07,45.07,0,0,0-12.44-21.31c-.56-.52-1-1-1.52-1.36l.38-.13c7.78-2.25,25.2.68,32.35,5.72a13.88,13.88,0,0,1,2.2,1.93,17.8,17.8,0,0,0-2.27,4.06,26.34,26.34,0,0,0-1.42,9.87c.08,11.6,1.59,24,8.38,33.47A10.93,10.93,0,0,1,281.8,122.59Z"/><path d="M278,227.94l-2,.11c.38-.26.75-.54,1.11-.82C277.43,227.46,277.74,227.69,278,227.94Z"/><path class="cls-7" d="M277.67,71.35a21.18,21.18,0,0,0-1.54,1.89,13.88,13.88,0,0,0-2.2-1.93c-7.15-5-24.57-8-32.35-5.72l-.38.13a4.93,4.93,0,0,0-.62-.43q1.39-.23,2.88-.33c9.73-.79,17.29-1,26.25,2.85C272.08,68.83,275,70.53,277.67,71.35Z"/><path d="M276.85,227a2.26,2.26,0,0,1,.26.2c-.36.28-.73.56-1.11.82-13.2.76-26.41,1.37-39.62,2-.41-.33-.83-.64-1.25-.95Z"/><path class="cls-13" d="M276,228.05a38,38,0,0,1-8.24,4.45,178.47,178.47,0,0,1-21.24,6.18A103.31,103.31,0,0,0,236.38,230C249.59,229.42,262.8,228.81,276,228.05Z"/><path class="cls-14" d="M273.93,132.06l-5.55,4.78C269.92,135.47,271.91,133.76,273.93,132.06Z"/><path class="cls-7" d="M263.13,141.38l5-4.35c-.77.69-1.39,1.29-1.84,1.75a13,13,0,0,0-2.46,2.87c-1.32,1.94.63,8.66.49,11a33.34,33.34,0,0,0-2.84-11.57A1,1,0,0,0,263.13,141.38Z"/><path class="cls-7" d="M264.36,152.65A24.33,24.33,0,0,1,264,158C264.18,156.27,264.26,154.48,264.36,152.65Z"/><path class="cls-12" d="M246.52,238.68a99.49,99.49,0,0,1,17.7,22.82A145.62,145.62,0,0,1,245.9,265a139.65,139.65,0,0,1-17.16.43,221.63,221.63,0,0,0,0-23.47C234.74,241.08,240.66,240,246.52,238.68Z"/><path class="cls-7" d="M264,158.09a30.3,30.3,0,0,1-2,9.4C261.77,168,263.28,162.92,264,158.09Z"/><path class="cls-14" d="M260.18,138.74a17,17,0,0,1,1.32,2.31C261.13,140.53,260.76,139.7,260.18,138.74Z"/><path class="cls-7" d="M260.17,138.73c-.14-.22-.28-.43-.44-.64a18,18,0,0,0-3.18-3.34h0A12.85,12.85,0,0,1,260.17,138.73Z"/><path class="cls-14" d="M255.16,88.39c2.54,9.44,2.38,19.44.64,29.05-.65,3.51-1.62,7.22-4.29,9.6a8.74,8.74,0,0,1-3.42,1.83c-.4-2,.75-4.88,1.32-7.49a27.1,27.1,0,0,0,.38-8c-.21-2.75-1.11-5.64-3.32-7.28a13.59,13.59,0,0,0-4.09-1.78c-1.82-.59-3.62-1.22-5.4-1.91A21,21,0,0,1,230.62,99a1.92,1.92,0,0,1-.65-.9,1.74,1.74,0,0,1,.21-1.11c1.86-4.13,6.41-6.15,10.27-8.49a8.1,8.1,0,0,0,2.42-2c1.93-2.5.9-6.06.1-9.11-1-3.65-7.57-9.67-1.77-11.67.48.37,1,.84,1.52,1.36A45.07,45.07,0,0,1,255.16,88.39Z"/><path class="cls-14" d="M249.53,130.92a22.2,22.2,0,0,1,6.9,3.74C252.86,132.1,251.78,132.25,249.53,130.92Z"/><path d="M249.79,113.39a27.1,27.1,0,0,1-.38,8c-.57,2.61-1.72,5.45-1.32,7.49a26.84,26.84,0,0,1-7.41.64h-.23a35.67,35.67,0,0,0-5.46.34l-.2,0a37.53,37.53,0,0,0-5.32,1.11c-2,.56-4.81,2.42-7.13,3.15s-2.66-4.35-4-6.25c-6.78-9.43-8.31-21.86-8.38-33.48a26.49,26.49,0,0,1,1.42-9.86,16.69,16.69,0,0,1,.88-1.86h0c1.17-1.07,2.21-2.49,3.43-3.82,2.12-2.35,7.92-7.38,10.75-8.8a45.29,45.29,0,0,1,14.17-4.77,4.93,4.93,0,0,1,.62.43c-5.8,2,.81,8,1.77,11.67.8,3,1.83,6.61-.1,9.11a8.1,8.1,0,0,1-2.42,2C236.59,90.8,232,92.82,230.18,97a1.74,1.74,0,0,0-.21,1.11,1.92,1.92,0,0,0,.65.9,21,21,0,0,0,6.36,3.46c1.78.69,3.58,1.32,5.4,1.91a13.59,13.59,0,0,1,4.09,1.78C248.68,107.75,249.58,110.64,249.79,113.39Z"/><path class="cls-7" d="M248.09,128.87a2.85,2.85,0,0,0,1.41,2,25.19,25.19,0,0,0-5.2-1.15,36.06,36.06,0,0,0-3.62-.25A26.84,26.84,0,0,0,248.09,128.87Z"/><path class="cls-9" d="M245.53,48l.34,0c-.11.06-.94.3-2.28.67Z"/><path class="cls-9" d="M243.47,48.63c-3.54,1.11-7.07,2.23-10.61,3.33-1.32.42-2.65.83-4,1.26C234.68,51.12,240.37,49.5,243.47,48.63Z"/><path class="cls-16" d="M242.37,212.2v.14l-87.3,6.12a10.27,10.27,0,0,1-4-.31h0L141.42,8a1.21,1.21,0,0,1,.2-.26c6.36,25.58,14,50.81,21.71,76,1.11,3.62,2.21,7.26,3.33,10.9h0c1.23,26.59,2.23,53.26,4,79.7.17,2.58.61,6.2,2.6,7.82,1.46,1.19,5.73,1.18,7.61,1.21,8.16.11,15.89-.07,23.43-.36A88.63,88.63,0,0,0,214,194.78C221.52,202.34,232,209.91,242.37,212.2Z"/><path d="M235,129.85a35.67,35.67,0,0,1,5.46-.34A43.15,43.15,0,0,0,235,129.85Z"/><path class="cls-9" d="M238.26,64.86a3.65,3.65,0,0,1,2.32.43,45.29,45.29,0,0,0-14.17,4.77c-2.83,1.42-8.63,6.45-10.75,8.8-1.22,1.33-2.26,2.75-3.43,3.82a27.66,27.66,0,0,1,7.56-8.29,56.53,56.53,0,0,1,12.28-7.27C233.94,66.31,236.24,65.07,238.26,64.86Z"/><path class="cls-5" d="M206.28,280.94h0c-4.23.3,3.46,7.54,7.08,10.24,6,4.51,21.29,9.21,21.29,25.63,0,6.86.55,5.86-2.17,14.33a27.21,27.21,0,0,1-3.85,7,71.42,71.42,0,0,1-6.44,7.86,35.48,35.48,0,0,1-15.4,9.13c.15-.14.3-.3.46-.47-6.82-13.68-10.5-28.14-13.81-43.07-3.75-17-7.33-34.27-10.95-51.48l.21-.05c.13,0-.3-13,6.71-21.21a24.31,24.31,0,0,1,13-8.17l1.33.07c3.88.17,7.76.18,11.64.1,5,1.24,11.64,4.29,12.81,10.62h0l.07.55q-6.51.89-13,1.41c-4.44.36-9.08.66-13,2.87a11.76,11.76,0,0,0-5.5,6.51,8.64,8.64,0,0,0,1.56,8.21c2.47,2.78,11.1,3.76,14.8,3.9,6.23.23,11.3.41,15.65.5-.24,3.64-.23,7.15-6.31,11.57-3.92,2.85-8.43,3.79-13.19,4C208.23,280.94,207.25,281,206.28,280.94Z"/><path class="cls-7" d="M229.47,131a37.53,37.53,0,0,1,5.32-1.11,30.49,30.49,0,0,0-8.19,2.39c-4.13,1.87-4.6,3.56-5.11,2.41C210.69,120.44,207,102,209.9,84.32l0-.12h0a2.72,2.72,0,0,0,.37-.13,7.06,7.06,0,0,0,2-1.37,16.69,16.69,0,0,0-.88,1.86,26.49,26.49,0,0,0-1.42,9.86c.07,11.62,1.6,24,8.38,33.48,1.37,1.9,1.72,7,4,6.25S227.51,131.55,229.47,131Z"/><path class="cls-12" d="M228.22,242l.57-.07a221.63,221.63,0,0,1,0,23.47c-4.35-.09-9.42-.27-15.65-.5-3.7-.14-12.33-1.12-14.8-3.9a8.64,8.64,0,0,1-1.56-8.21,11.76,11.76,0,0,1,5.5-6.51c3.87-2.21,8.51-2.51,13-2.87S223.88,242.57,228.22,242Z"/><path class="cls-17" d="M228.16,241.43c-1.17-6.33-7.8-9.38-12.81-10.62,2.89-.05,5.78-.15,8.66-.26,1.46,1.94,4.32,6.45,4.78,11.36l-.57.07-.07-.55Z"/><path class="cls-9" d="M217.48,58.1a56.94,56.94,0,0,1,11-4.73c-5.18,1.91-10.39,4.18-13.85,6.64A30.79,30.79,0,0,1,217.48,58.1Z"/><path d="M223.3,229.67a10.57,10.57,0,0,1,.71.88c-2.88.11-5.77.21-8.66.26a26.42,26.42,0,0,0-3-.57,31.86,31.86,0,0,0-4.08-.27v-.46C216.38,229.53,223,229.3,223.3,229.67Z"/><path d="M215.35,230.81c-3.88.08-7.76.07-11.64-.1l-1.33-.07a25.58,25.58,0,0,1,5.91-.67,31.86,31.86,0,0,1,4.08.27A26.42,26.42,0,0,1,215.35,230.81Z"/><path d="M208.29,229.51V230a25.58,25.58,0,0,0-5.91.67A92.21,92.21,0,0,1,176.8,226l.29-.09a3,3,0,0,1,2,.13C183.86,229,197.43,229.48,208.29,229.51Z"/><path class="cls-5" d="M207.25,354.62c-.16.17-.31.33-.46.47-.72.21-1.43.38-2.15.53a45.51,45.51,0,0,1-8.28.9v-1.59c-13.88-3-24.08-14.69-32-26.45-7.69-11.35-14.39-24-17.5-37.19h0a57,57,0,0,1,3-5.92c4.89-8.32,11.87-15.86,13.46-25.39.92-5.43-.05-11.05.83-16.5a24.84,24.84,0,0,1,6.44-13,17.11,17.11,0,0,1,4.74-3.81c2.45,11.06,4.82,22.25,7.17,33.45,3.62,17.21,7.2,34.47,10.95,51.48C196.75,326.48,200.43,340.94,207.25,354.62Z"/><path class="cls-8" d="M204.64,355.62c.72-.15,1.43-.32,2.15-.53-5.7,5.63-14.6,6.6-22.65,6.27-17.38-.72-35.53-6.56-46.42-20.11A69.4,69.4,0,0,1,131.13,331c-2.49-4.53-4.8-9.26-5.65-14.35a36.05,36.05,0,0,1,.25-11.86,56.09,56.09,0,0,1,16.55-31.15c1-.92,2-1.82,2.92-2.76a64.48,64.48,0,0,0,1.61,20.41h0a50,50,0,0,0-4.5,23c.54,10.09,4.76,20.1,12.24,26.9a50.88,50.88,0,0,0,11.75,7.66c9.32,4.67,19.72,7.85,30.06,7.68A45.51,45.51,0,0,0,204.64,355.62Z"/><path class="cls-15" d="M195.62,168.81A149,149,0,0,0,204.29,183c-7.54.29-15.27.47-23.43.36-1.88,0-6.15,0-7.61-1.21-2-1.62-2.43-5.24-2.6-7.82-1.76-26.44-2.76-53.11-4-79.7C174.5,120.08,182.92,145.44,195.62,168.81Z"/><path class="cls-10" d="M196.35,354.93v1.59c-10.34.17-20.74-3-30.06-7.68a50.88,50.88,0,0,1-11.75-7.66c-7.48-6.8-11.7-16.81-12.24-26.9a50,50,0,0,1,4.5-23c3.11,13.22,9.81,25.84,17.5,37.19C172.27,340.24,182.47,351.89,196.35,354.93Z"/><path class="cls-5" d="M182.7,260l-.21.05c-2.35-11.2-4.72-22.39-7.17-33.45a8.76,8.76,0,0,1,1.48-.58,92.21,92.21,0,0,0,25.58,4.6,24.31,24.31,0,0,0-13,8.17C182.4,247,182.83,260,182.7,260Z"/><path class="cls-4" d="M175.29,226.46l0,.16a17.11,17.11,0,0,0-4.74,3.81,24.84,24.84,0,0,0-6.44,13c-.88,5.45.09,11.07-.83,16.5-1.59,9.53-8.57,17.07-13.46,25.39a57,57,0,0,0-3,5.92,64.48,64.48,0,0,1-1.61-20.41,16.91,16.91,0,0,0,3.22-4.09,23.25,23.25,0,0,0,2-7.38q.78-5.29,1.58-10.6c.85-5.73,1.84-11.76,5.47-16.27C161.32,227.74,169.3,225,175.29,226.46Z"/><path class="cls-18" d="M151.06,218.14h0c-7.29-.06-19.75-2.06-26.86-2.58-2.17-.16-4.45-.07-6.32-1.18-3.79-2.24-4.08-7.51-3.94-11.92.63-20.5.78-41,.57-61.51l1.07.69-.79-48.35-1.41-1.44q-.59-17.11-1.39-34.23c-.11-2.33-.21-4.68-.29-7,15-5.71,10.2-16.88.89-20.62a11.71,11.71,0,0,1,1.76-4.48,16.78,16.78,0,0,1,5.35-4.38L141.41,7.82V8l-.1.17a5.87,5.87,0,0,0-.11,2.45.22.22,0,0,0,0-.06c-.13,6,.54,191,4.44,201.84a10,10,0,0,0,3.83,5.1A6.17,6.17,0,0,0,151.06,218.14Z"/><path class="cls-16" d="M141.22,10.51a.22.22,0,0,1,0,.06,5.87,5.87,0,0,1,.11-2.45l.1-.17,9.64,210.19a6.17,6.17,0,0,1-1.57-.69,10,10,0,0,1-3.83-5.1C141.76,201.5,141.09,16.54,141.22,10.51Z"/><path class="cls-18" d="M114.79,93.3l.79,48.35-1.07-.69q-.26-24.56-1.13-49.1Z"/><path class="cls-18" d="M99.61,80.71c1-.59,2.15-.46,3.48.65,11.18,11.41,1,1,10.29,10.5q.84,24.56,1.13,49.1c-7.52-4.88-31.13-21.67-31.66-31.18a4.5,4.5,0,0,1,1.4-3.67C92.54,100,95,83.3,99.61,80.71Z"/><path class="cls-2" d="M112.59,30c9.31,3.74,14.07,14.91-.89,20.62a115.47,115.47,0,0,1,.5-18.13C112.3,31.66,112.41,30.82,112.59,30Z"/><path class="cls-2" d="M49.37,46.43c-3.92-4.33-14.08-3-23-.67a24.61,24.61,0,0,1-4.44.12c-4-.12-2.34-4.92.36-5.93C31.21,34.42,51.38,28.54,59,37.81a1.35,1.35,0,0,0,1.88.73c6.83-3.63,14.15-2.77,19.76,3.28a21,21,0,0,1,2.83,3.76c5.21,10.64.06-3.28,12.81-13.34A16.23,16.23,0,0,1,112.59,30c-.18.83-.29,1.67-.39,2.49a115.47,115.47,0,0,0-.5,18.13l-.09,0c-7.36,2.09-10.85,5.52-12.33,9.87l-.08,0c-5.13,7.36-9.24,28-11.77,22.86-.82-1.68-1.47-6.08-1.93-14.57,0-1-1,9.13,1.91,14.58A8.57,8.57,0,0,0,88.54,85c4.43,6.29-6.35,13.18-11,16.86a4,4,0,0,0-1.17,3.91l-.42.13c-6.78-3.59-11.85-.93-20-5.1-8.16-4.74-10.1-27.26-21.13-25.11-15.8,3.07-33.47-5-18-13.19l-.95.41C2,70.37,4.12,53.57,13.8,49.63c2.87-1,7.52-2.58,12.6-3.87C34.2,45,42.64,41.65,49.37,46.43ZM16.87,62.49A40.26,40.26,0,0,1,32.7,59.3c3.61.48,6.59,1.51,8.87,1.43l1.17.43c1.22,1.16,0,7.15,1.59,5.75.72-1.8.1-4.64.59-7.21a.22.22,0,0,0-.39-.17,4,4,0,0,1-3,1.2A28.21,28.21,0,0,0,32.7,59.3a22.36,22.36,0,0,0-11.43,1.22A44,44,0,0,0,16.87,62.49Z"/><path class="cls-2" d="M99.2,60.49l.08,0C97.42,66,98.77,73,99.61,80.71,95,83.3,92.54,100,84.25,106.11a4.5,4.5,0,0,0-1.4,3.67c-3,.13-5.81-1.69-6.45-4a4,4,0,0,1,1.17-3.91C82.19,98.19,93,91.3,88.54,85a8.57,8.57,0,0,1-1.13-1.65h0C90,88.48,94.07,67.85,99.2,60.49Z"/><path class="cls-19" d="M83.93,109.67a6.59,6.59,0,0,1-1.08.11c-3,.13-5.81-1.69-6.45-4a4,4,0,0,1,1.17-3.91C82.19,98.19,93,91.3,88.54,85a8.57,8.57,0,0,1-1.13-1.65c-2.87-5.45-1.91-15.57-1.91-14.58.46,8.49,1.11,12.89,1.93,14.57C90,88.48,94.07,67.85,99.2,60.49"/><path class="cls-19" d="M16.83,62.51C1.35,70.74,19,78.77,34.82,75.7c11-2.15,13,20.37,21.13,25.11,8.18,4.17,13.25,1.51,20,5.1"/><path class="cls-19" d="M41.57,60.73c-2.28.08-5.26-.95-8.87-1.43a22.36,22.36,0,0,0-11.43,1.22,44,44,0,0,0-4.4,2"/><path class="cls-19" d="M41.57,60.73l1.17.43c1.22,1.16,0,7.15,1.59,5.75.72-1.8.1-4.64.59-7.21a.22.22,0,0,0-.39-.17A4,4,0,0,1,41.57,60.73Z"/><path class="cls-19" d="M16.87,62.49A40.26,40.26,0,0,1,32.7,59.3a28.21,28.21,0,0,1,8.87,1.43"/><path class="cls-19" d="M16.87,62.49l0,0"/><path class="cls-19" d="M49.37,46.43c-3.92-4.33-14.08-3-23-.67-5.08,1.29-9.73,2.88-12.6,3.87C4.12,53.57,2,70.37,15.88,62.92l.95-.41"/><path class="cls-20" d="M99.68,81.42c0-.24-.05-.48-.07-.71C98.77,73,97.42,66,99.28,60.52c1.48-4.35,5-7.78,12.33-9.87l.09,0c15-5.71,10.2-16.88.89-20.62a16.23,16.23,0,0,0-16.33,2.25c-12.75,10.06-7.6,24-12.81,13.34a21,21,0,0,0-2.83-3.76c-5.61-6-12.93-6.91-19.76-3.28A1.35,1.35,0,0,1,59,37.81c-7.6-9.27-27.77-3.39-36.66,2.14-2.7,1-4.38,5.81-.36,5.93a24.61,24.61,0,0,0,4.44-.12c7.8-.81,16.24-4.11,23,.67.13.09.27.18.39.28-.4,1.07-2,4.81-1,2.79a15.3,15.3,0,0,1,4.32-5.17"/><path class="cls-21" d="M241.2,65.72a4.93,4.93,0,0,0-.62-.43"/><path class="cls-21" d="M240.68,129.51a26.84,26.84,0,0,0,7.41-.64"/><path class="cls-21" d="M235,129.85a43.15,43.15,0,0,1,5.46-.34"/><path class="cls-21" d="M212.23,82.69a16.69,16.69,0,0,0-.88,1.86,26.49,26.49,0,0,0-1.42,9.86c.07,11.62,1.6,24,8.38,33.48,1.37,1.9,1.72,7,4,6.25s5.17-2.59,7.13-3.15a37.53,37.53,0,0,1,5.32-1.11"/><path class="cls-21" d="M281.8,122.6c1.08,2.61,2.3,6.3,4.07,5.74,2.32-.72,2.47-5.65,5.36-7.39,3.27-2,8.46-2.62,12.26-2.61"/><path class="cls-21" d="M277.67,71.35a21.18,21.18,0,0,0-1.54,1.89"/><path class="cls-21" d="M275.13,161.36l.18-.53"/><path class="cls-21" d="M316.79,132.68a35.3,35.3,0,0,1,1.82,8.19c.49,3.78,0,9.59-1.85,12.93a25.49,25.49,0,0,1-3.15,4.56c-3.5,3.42-6.36,4.56-11.24,4.33a18.13,18.13,0,0,1-12.8-6.28c-1.16-1.35-2.23-2.95-3.93-3.43-2.62-.74-6.7,0-7.88,2.45-1.52,3.13-2.51,5.67-2.63,5.93h0"/><path class="cls-21" d="M286.51,129.68a20.39,20.39,0,0,1,3.47-5.52c4.18-4.69,11.41-7,17-4.21.19.09.36.19.54.29"/><path class="cls-21" d="M284.15,141.94a1,1,0,0,1,0-.25,31.25,31.25,0,0,1,2.38-12"/><path class="cls-21" d="M286.51,129.69c-1.28,3.36-2.17,11.86-2.36,12.25,0,0,0,0,0,0"/><line class="cls-21" x1="286.51" y1="129.69" x2="286.51" y2="129.68"/><path class="cls-21" d="M274.49,131.58c2.27-1.9,4.5-3.75,6-5,1.88-1.58,3.56,3.49,6,3.14"/><path class="cls-21" d="M264,158c.15-1.77.23-3.56.33-5.39.14-2.34-1.81-9.06-.49-11a13,13,0,0,1,2.46-2.87c.45-.46,1.07-1.06,1.84-1.75"/><path class="cls-21" d="M264,158.09c-.74,4.83-2.25,9.93-2,9.4A30.3,30.3,0,0,0,264,158.09Z"/><path class="cls-21" d="M264,158.09s0,0,0,0,0,0,0,0"/><path class="cls-21" d="M261.52,141.08a33.34,33.34,0,0,1,2.84,11.57A24.33,24.33,0,0,1,264,158"/><path class="cls-21" d="M256.55,134.75a18,18,0,0,1,3.18,3.34c.16.21.3.42.44.64"/><path class="cls-21" d="M209.9,84.32c-2.87,17.64.79,36.12,11.59,50.36.51,1.15,1-.54,5.11-2.41a30.49,30.49,0,0,1,8.19-2.39l.2,0a35.67,35.67,0,0,1,5.46-.34h.23a36.06,36.06,0,0,1,3.62.25,25.19,25.19,0,0,1,5.2,1.15"/><path class="cls-21" d="M316.79,132.68c2.08,3.21,6.85-2.27,10.08-4.68a63.7,63.7,0,0,0,4.74-4.8c2.19-2.32,4.17-6.69,4.93-8.55a47.22,47.22,0,0,0,2.78-11.88c1.88-13.9-2.28-28.9-4.07-35.32a36.21,36.21,0,0,0-1.7-4.73"/><path class="cls-21" d="M299.6,57.88c.73,5.16,1.2,8.52,2,11.81a7.61,7.61,0,0,1,.33,3.62,6,6,0,0,1-2.26,3c-4.38,3.48-12.48,3.7-13.72,9.17a6,6,0,0,0,0,2.11c.5,2.14,4,2.24,6,3a28.32,28.32,0,0,1,7.82,3.84,11.94,11.94,0,0,1,4.77,7.1,13.13,13.13,0,0,1-.25,5.29,54,54,0,0,0-1.22,5.47c-.22,1.85-1.51,6.06.36,6.09a7.37,7.37,0,0,1,4.08,1.9c3.29,2.61,6.87,7.52,8.95,12a4,4,0,0,0,.26.46"/><path class="cls-21" d="M349.36,344.58c.7-5.2-.28-11.43,2.41-15.69"/><path class="cls-21" d="M279,302.78l-.05.13a26.72,26.72,0,0,0-4.86,36c1.91,2.71,4.35,5.15,5.4,8.3.73,2.24.7,4.72,1.71,6.85,1.28,2.71,4,4.43,6.71,5.75a54.36,54.36,0,0,0,16.77,5.13c1.85.24,3.71.4,5.58.46a73.69,73.69,0,0,0,8.53-.29c6.31-.52,12.7-1.62,18.32-4.54,5-2.62,9.43-6.89,11.34-12.18"/><path class="cls-21" d="M377.44,234.33a39.36,39.36,0,0,0-10.6-8.6,40.55,40.55,0,0,0-15-5.71,14.32,14.32,0,0,0-2.91-.31l-.64,0c-3,.17-5.92.54-8.85.94l-1.1.16a56.81,56.81,0,0,0-10.44,2.1c-.74.24-1.46.53-2.18.83-4.64,2-8.81,5-12.91,8a36.43,36.43,0,0,0-5,4.14c-2.34,2.5-3.94,5.63-5.83,8.4a18.73,18.73,0,0,0-1.64,2.94c-2.73,6.16-.29.66-3,7.7"/><path class="cls-21" d="M384.88,246c-.37-.68-.76-1.36-1.14-2a62.32,62.32,0,0,0-6.15-9.51l-.14-.16"/><path class="cls-21" d="M351.51,329l.26-.09c3.32-1.12,7.78-3.51,13.42-8.32,1.19-1,3.48-2.57,5-4a41.38,41.38,0,0,0,8.23-9.67c.08-.14.18-.29.26-.44.36-.53,1.31-2,2.44-3.84"/><path class="cls-21" d="M241.2,65.72l.38-.13c7.78-2.25,25.2.68,32.35,5.72a13.88,13.88,0,0,1,2.2,1.93c5.26,5.66,4.06,14.15,4.86,20.56.36,2.71.7,5.41,1,8.12.51,4,.89,8,1.1,12.06a18,18,0,0,1-1.33,8.61h0c-1.24,2.78-3.47,5.66-7.31,9l-.29.25-.27.23-5.55,4.78-.21.19-5,4.35a1,1,0,0,1-1.61-.3s0,0,0,0c-.37-.52-.74-1.35-1.32-2.31h0a12.85,12.85,0,0,0-3.61-4h0l-.12-.09c-3.57-2.56-4.65-2.41-6.9-3.74h0a2.85,2.85,0,0,1-1.41-2c-.4-2,.75-4.88,1.32-7.49a27.1,27.1,0,0,0,.38-8c-.21-2.75-1.11-5.64-3.32-7.28a13.59,13.59,0,0,0-4.09-1.78c-1.82-.59-3.62-1.22-5.4-1.91A21,21,0,0,1,230.62,99a1.92,1.92,0,0,1-.65-.9,1.74,1.74,0,0,1,.21-1.11c1.86-4.13,6.41-6.15,10.27-8.49a8.1,8.1,0,0,0,2.42-2c1.93-2.5.9-6.06.1-9.11C242,73.74,235.4,67.72,241.2,65.72Z"/><path class="cls-21" d="M384.89,246.05a4.28,4.28,0,0,1,.57.59c4.51,6,6.27,13.39,6.27,21.12a69.64,69.64,0,0,1-2.82,18.55,56.29,56.29,0,0,1-7.79,16.31s0,0,0,0a95.94,95.94,0,0,1-15.78,17.51c-7.8,6.92-11.39,7.63-12.79,8.09a2.36,2.36,0,0,0-1,.74c-1.9,2.29-1.85,8.79-2,13.37,0,.82-.06,1.58-.12,2.23a11.66,11.66,0,0,1-.19,1.46,13.17,13.17,0,0,1-.72,2.31c-2.71,6.66-10.56,11.13-17.36,13.83a42,42,0,0,1-12.3,2.85,67.27,67.27,0,0,1-13.27-.47"/><path class="cls-21" d="M305.49,364.55l-.67-.08.78.12-.08,0h0c-2.29-.83-3.36-2.65-3.08-5.34a6,6,0,0,1,2.95-4.43c3.56-2.21,10.73-13,10.73-13l1.5-2,1.78-2.42a69,69,0,0,0,3.64-6.07l2.85-5.85A61.71,61.71,0,0,0,332,302.82c.41-5.55,1.28-10.18,2-14.95a87,87,0,0,1,5.17-15c.47-1,1.24-2.53,1.73-3.49,2.56-5,4.83-10.21,8.16-14.75a37.93,37.93,0,0,1,8.72-8.57,23.12,23.12,0,0,1,11.78-4.58c5-.27,8.75,0,13.29,3a21.07,21.07,0,0,1,2.08,1.56"/><path class="cls-21" d="M278,227.94c-.3-.25-.61-.48-.93-.71"/><path class="cls-21" d="M264.23,261.5a86.27,86.27,0,0,1,11.2,39.81,2.15,2.15,0,0,0,3.43,1.56l.14-.09a31.56,31.56,0,0,1,5-3,31.13,31.13,0,0,1,5.7-2.09,4,4,0,0,0,3.19-3.46c.57-13.28,1.15-26.5,4.28-38.89l.09-.39a.06.06,0,0,1,0,0,10.82,10.82,0,0,0-.62-5.24,11.85,11.85,0,0,0-1.72-3.16"/><path class="cls-21" d="M236.38,230a103.31,103.31,0,0,1,10.14,8.67"/><path class="cls-21" d="M214,60.52a22.44,22.44,0,0,0-7.35,9.68c-.9,2.47-1.74,15.55,3.26,14h0a2.72,2.72,0,0,0,.37-.13,7.06,7.06,0,0,0,2-1.37"/><path class="cls-21" d="M228.48,53.37a56.94,56.94,0,0,0-11,4.73A30.79,30.79,0,0,0,214.63,60"/><path class="cls-21" d="M243.47,48.63c-3.54,1.11-7.07,2.23-10.61,3.33-1.32.42-2.65.83-4,1.26"/><path class="cls-21" d="M245.87,47.93l-.34,0-1.94.62"/><path class="cls-21" d="M243.59,48.6c1.34-.37,2.17-.61,2.28-.67h0"/><path class="cls-21" d="M243.59,48.6l-.1,0h0"/><path class="cls-21" d="M228.89,53.22c5.79-2.1,11.48-3.72,14.58-4.59"/><path class="cls-21" d="M228.89,53.22l-.4.14h0"/><path class="cls-21" d="M214.63,60c3.46-2.46,8.67-4.73,13.85-6.64"/><path class="cls-21" d="M214.63,60l-.63.47a.1.1,0,0,1-.05,0"/><path class="cls-21" d="M283.11,56.36c-1.52-4.28-2.74-8.77-5.49-12.32C274.73,40.31,270.4,38,266,36.16a54.92,54.92,0,0,0-8.47-2.8,45.64,45.64,0,0,0-42.46,12.33,23.79,23.79,0,0,0-5,7.06,32.87,32.87,0,0,0-1.63,5.7c-.29,1.35-.46,3,.68,3.84,1.31.89,3-.27,4.21-1.29.18-.16.39-.33.59-.48"/><path class="cls-21" d="M286.45,63.46a29,29,0,0,1-3.25-6.81"/><path class="cls-21" d="M288,65.38a13.89,13.89,0,0,1-1.16-1.4c-.13-.17-.24-.33-.35-.5"/><line class="cls-21" x1="288.03" y1="65.43" x2="288.04" y2="65.44"/><path class="cls-21" d="M288,65.43s0,0,0-.05"/><path class="cls-21" d="M286.87,64c.36.43.73.91,1.11,1.43"/><path class="cls-21" d="M286.47,63.48c.13.15.26.3.39.47"/><path class="cls-21" d="M286.47,63.48l0,0"/><path class="cls-21" d="M283.2,56.65l.22.61a1.5,1.5,0,0,1-.16,1.63,2,2,0,0,1-2,.53c-5.78-2-14.18.44-10-.27a23.7,23.7,0,0,1,9.11.4,11.39,11.39,0,0,1,6.09,3.91"/><path class="cls-21" d="M283.2,56.65h0a2.29,2.29,0,0,1-.09-.28"/><path class="cls-21" d="M281.21,39.56a5.89,5.89,0,0,0-3,2c-1.41,2.33,1.76,5.38,2.68,7.94.81,2.25,1.46,4.6,2.24,6.86"/><path class="cls-21" d="M295.28,36.12c-3.11.57-6.82,1.31-8.95,2-1.25.37-3.3.8-5.06,1.46"/><path class="cls-21" d="M297.29,35.76l-1,.18"/><path class="cls-21" d="M298.38,35.59l-1,.15"/><path class="cls-21" d="M300.67,35.24c-.05,0-.89.11-2.15.33"/><path class="cls-21" d="M298.52,35.57c.62-.1,1.25-.18,1.86-.25a1.26,1.26,0,0,0,.29-.08h0"/><path class="cls-21" d="M298.52,35.57h-.14"/><path class="cls-21" d="M297.4,35.74c.32-.06.65-.11,1-.15"/><path class="cls-21" d="M297.4,35.74l-.11,0"/><path class="cls-21" d="M296.29,35.94l1-.18"/><path class="cls-21" d="M296.29,35.94l-.89.16-.12,0"/><path class="cls-21" d="M281.27,39.54c4.27-1,9.08-2.43,14-3.42"/><path class="cls-21" d="M281.27,39.54h-.06"/><path class="cls-21" d="M319.69,45.16a87.78,87.78,0,0,1,9.39.93,2.8,2.8,0,0,0,1.64-.22,2.4,2.4,0,0,0,1-1.35,6.44,6.44,0,0,0-1.37-6.12,44.26,44.26,0,0,0-7.74-6.58c-7.1-4.17-12.12-5.66-20.34-5.85-5.23-.13-10.36,1.35-15.37,2.82s-10.29,3.32-12.42,7.92a3.55,3.55,0,0,0-.4,1.91,3,3,0,0,0,2.93,2.3c1.33.07,2.85-1.06,4.16-1.36"/><path class="cls-21" d="M319.49,45.15c-5.16-.37-10-.15-9.12.16A75.11,75.11,0,0,1,319.49,45.15Z"/><path class="cls-21" d="M319.49,45.15h.2"/><path class="cls-21" d="M300.14,57.7a25.82,25.82,0,0,1,7.66-1.21c5.42,0,10.7,1.58,15.88,3.18l9.87,3,1.15.35a6.21,6.21,0,0,0,2.65.4c2.35-.33,3.47-3.21,3.23-5.56-.6-5.94-6.79-9.15-12.37-11.26a33.76,33.76,0,0,0-8.52-1.49"/><path class="cls-21" d="M212.23,82.68c1.17-1.07,2.21-2.49,3.43-3.82,2.12-2.35,7.92-7.38,10.75-8.8a45.29,45.29,0,0,1,14.17-4.77q1.39-.23,2.88-.33c9.73-.79,17.29-1,26.25,2.85,2.37,1,5.26,2.72,8,3.54,2,.63,3.94.75,5.45-.26a17.36,17.36,0,0,0,3.62-4.1,19.38,19.38,0,0,1,1.3-1.55,27,27,0,0,1,11.56-7.56l.47-.16"/><path class="cls-21" d="M175.32,226.62l0-.16c-6-1.43-14,1.28-17.84,6.07-3.63,4.51-4.62,10.54-5.47,16.27q-.79,5.31-1.58,10.6a23.25,23.25,0,0,1-2,7.38,16.91,16.91,0,0,1-3.22,4.09c-.94.94-1.95,1.84-2.92,2.76a56.09,56.09,0,0,0-16.55,31.15,36.05,36.05,0,0,0-.25,11.86c.85,5.09,3.16,9.82,5.65,14.35a69.4,69.4,0,0,0,6.59,10.26c10.89,13.55,29,19.39,46.42,20.11,8.05.33,17-.64,22.65-6.27"/><path class="cls-21" d="M328.8,271.72l0-.05"/><path class="cls-21" d="M377.54,234.38l-.09,0h0a16.35,16.35,0,0,0-6.37-2,23.89,23.89,0,0,0-5.07.13c-9.46,1.19-18.06,6.65-24.28,13.88-5.84,6.81-12.45,24.22-12.9,25.31"/><path class="cls-21" d="M313.36,324.12l0,.06a.47.47,0,0,0-.09.1c-.58.72-3.18,4-5.91,7.87-2.88,4.11-5.92,8.92-6.92,12.21a33.74,33.74,0,0,0-1,9.09c-.05,3.09,2.56,10,5.3,11.44"/><path class="cls-21" d="M313,324.57a3.1,3.1,0,0,1,.25-.29"/><path class="cls-21" d="M281.37,124.15a12.17,12.17,0,0,0,4.5,4.78"/><path class="cls-21" d="M313.38,139.45c1.23,9.69-2.7,18.14-8.79,18.87s-12-6.53-13.24-16.22,2.71-18.13,8.79-18.87S312.15,129.76,313.38,139.45Z"/><path class="cls-21" d="M146.81,291.29a50,50,0,0,0-4.5,23c.54,10.09,4.76,20.1,12.24,26.9a50.88,50.88,0,0,0,11.75,7.66c9.32,4.67,19.72,7.85,30.06,7.68a45.51,45.51,0,0,0,8.28-.9c.72-.15,1.43-.32,2.15-.53a35.48,35.48,0,0,0,15.4-9.13,71.42,71.42,0,0,0,6.44-7.86,27.21,27.21,0,0,0,3.85-7c2.72-8.47,2.17-7.47,2.17-14.33,0-16.42-15.25-21.12-21.29-25.63-3.62-2.7-11.31-9.94-7.08-10.24"/><path class="cls-21" d="M176.8,226a8.76,8.76,0,0,0-1.48.58,17.11,17.11,0,0,0-4.74,3.81,24.84,24.84,0,0,0-6.44,13c-.88,5.45.09,11.07-.83,16.5-1.59,9.53-8.57,17.07-13.46,25.39a57,57,0,0,0-3,5.92"/><path class="cls-21" d="M228.79,241.91c-.46-4.91-3.32-9.42-4.78-11.36"/><path class="cls-21" d="M194.12,275.84c-.68-.4,1.82,1.2,2.64,1.73a21.92,21.92,0,0,0,6.82,3.05,12.06,12.06,0,0,0,2.7.32c1,0,1.95,0,3,0,4.76-.17,9.27-1.11,13.19-4,6.08-4.42,6.07-7.93,6.31-11.57"/><path class="cls-21" d="M182.74,259s-.07,1,0,1-.3-13,6.71-21.21a24.31,24.31,0,0,1,13-8.17,25.58,25.58,0,0,1,5.91-.67,31.86,31.86,0,0,1,4.08.27,26.42,26.42,0,0,1,3,.57c5,1.24,11.64,4.29,12.81,10.62h0"/><path class="cls-21" d="M274.25,258a89.48,89.48,0,0,0,18.89-10.09c.58-.42,1.18-.88,1.77-1.38,6-5,11.81-13.31,15.58-20.8"/><path class="cls-21" d="M264.23,261.5c.89-.24,1.67-.46,2.28-.68,2.61-.88,5.19-1.82,7.74-2.84"/><path class="cls-21" d="M277.11,227.23c-.36.28-.73.56-1.11.82a38,38,0,0,1-8.24,4.45,178.47,178.47,0,0,1-21.24,6.18c-5.86,1.34-11.78,2.4-17.73,3.23l-.57.07q-6.51.89-13,1.41c-4.44.36-9.08.66-13,2.87a11.76,11.76,0,0,0-5.5,6.51,8.64,8.64,0,0,0,1.56,8.21c2.47,2.78,11.1,3.76,14.8,3.9,6.23.23,11.3.41,15.65.5A139.65,139.65,0,0,0,245.9,265a145.62,145.62,0,0,0,18.32-3.45"/><path class="cls-22" d="M325.67,223.76c-5,.88-10.1,1.47-15.18,1.94q-4.53.41-9.08.73-11.67.85-23.37,1.51l-2,.11c-13.2.76-26.41,1.37-39.62,2l-7.08.31-5.29.23c-2.88.11-5.77.21-8.66.26-3.88.08-7.76.07-11.64-.1l-1.33-.07A92.21,92.21,0,0,1,176.8,226a58,58,0,0,1-14.39-7.35l149-11.18L371,203h0c1.26-.08.65,1.45-.4,2.34-8.53,7.2-19.68,12.06-31.29,15.3"/><path class="cls-19" d="M377.05,76a3.41,3.41,0,0,0-.06-.43,18,18,0,0,0-.69-3.19l.69,3.19.05.21c0,.08,0,.15,0,.22"/><path class="cls-19" d="M391.13,87.94c-.57,2.84-.68,5.71,1.06,8.32a21.16,21.16,0,0,0,5.36,5.23,39.89,39.89,0,0,0,5.18,3.36,20.11,20.11,0,0,0,9.89,2.15,2.81,2.81,0,0,1-1.48,1,23.67,23.67,0,0,1-2.4.47c-4,.85-7.22,4.94-11.32,4.56a9.06,9.06,0,0,1-4.39-2,23.94,23.94,0,0,1-6.1-6.51c-2-3.16-3.29-6.75-4.91-10.1-.72-1.66-1.43-3.32-2.15-5a30,30,0,0,1-2.25-6.19c-.27-1.52-.17-3.07-.31-4.61-.07-.9-.14-1.72-.25-2.53"/><path class="cls-19" d="M392.59,78.72a29,29,0,0,1-.79,6.34c-.23.94-.48,1.9-.66,2.86"/><path class="cls-19" d="M392.64,72.81h0c0,.06,0,.34,0,.92v2.08"/><path class="cls-19" d="M392.62,75.82c0-1.6,0-2.87,0-3"/><path class="cls-19" d="M392.62,75.82v.35c0,.27,0,.55,0,.83s0,.64,0,1v.22a2.62,2.62,0,0,1,0,.28v.27"/><path class="cls-19" d="M391.14,87.92c1.09-1.66,1.3-4.23,1.37-5.7,0-.62.06-2,.08-3.5"/><path class="cls-19" d="M391.14,87.92v0"/><path class="cls-19" d="M391.44,53v0c-.43-.58-8.73-14.58-15.31-17.91a9.28,9.28,0,0,0-8.72.2A7.43,7.43,0,0,0,365,37.78c-1.44,3.14,1.73,6.17,3.7,9.37.08.11.14.23.21.33,3.93,6.7,4.46,13.14,6.2,20.71a27.89,27.89,0,0,0,1.25,4.19,19.21,19.21,0,0,0,.83,1.82A59.81,59.81,0,0,0,381,80c1.8,2.57,3.71,5.07,5.57,7.6a3.46,3.46,0,0,0,2.21,1.71A2.65,2.65,0,0,0,391,88.07l.09-.13"/><path class="cls-19" d="M418.46,39.4l0-.06c-4.64-3.74-11.11-1.77-16.77.1-6.12,2-11.38,6.52-10.22,13.54a.1.1,0,0,0,0,0"/><path class="cls-19" d="M418.48,39.43c.11.16.15.17,0,0Z"/><path class="cls-19" d="M432.62,45.57C441.9,43.76,450.86,44,460.29,44c0-.05,0-.1,0-.15.22-2.48-1.6-5.22-3.44-6.87s-5.93-6.17-18.24-5.3a46.91,46.91,0,0,0-5.28.89c-1.88.31-10.09,1.75-12.17,2.28-4.56,1.2-3.16,3.86-2.72,4.53l0,0"/><path class="cls-19" d="M431,46l.16-.11c.48-.11,1-.2,1.46-.3"/><path class="cls-19" d="M431,46a5.31,5.31,0,0,1-4.69-1.06c-2.65-2.47,5,7,3.51,4.93C429.42,47.61,428.91,47.36,431,46Z"/><line class="cls-19" x1="430.97" y1="45.98" x2="430.98" y2="45.98"/><path class="cls-19" d="M432.6,45.57l-.06,0q-.82.24-1.56.39"/><path class="cls-19" d="M432.6,45.57h0"/><path class="cls-19" d="M468.28,61c.66.24,1.33.49,2,.75,2.31.91,5.32,1.82,6.61-1.22a5.87,5.87,0,0,0-.48-5.29c-3.06-5.13-5-7.09-8.17-8.45-1.41-.62-4.77-1.83-6.63-2.44-.47-.16-.87-.35-1.28-.48a3.52,3.52,0,0,0-1.21-.23c-7.34-.08-14.19-.37-20.1.43a41,41,0,0,0-6.38,1.5"/><path class="cls-19" d="M441.17,60c.54-.16,1.08-.35,1.57-.54C450.88,56.36,460,58,468.27,61"/><path class="cls-19" d="M436,59.13h0s0,0,.07.09c1,1.63,3.07,1.41,5,.83"/><path class="cls-19" d="M437.25,63.35A34.54,34.54,0,0,0,436,59.14"/><path class="cls-19" d="M437.25,63.35c-1,1.86-.07,3.19,0,2.66A5.63,5.63,0,0,0,437.25,63.35Z"/><path class="cls-19" d="M441.12,60.06a8.59,8.59,0,0,0-3.87,3.29"/><path class="cls-19" d="M441.12,60.06l.05,0"/><path class="cls-19" d="M468.27,61c-.86-.45-1.76-.86-2.64-1.24a22,22,0,0,0-7.36-1.69c-4.44-.25-8.06-1-12.26.19A26.08,26.08,0,0,0,441.17,60"/><path class="cls-19" d="M468.27,61h0"/><path class="cls-19" d="M377.06,76.11a13.57,13.57,0,0,1-.24,4.27,13.24,13.24,0,0,1-.69,1.85c-1,2.29-1.48,4.51-2.45,6.8l1.65,21,2.12,27.06a151.73,151.73,0,0,0,13.29-17.78,14.15,14.15,0,0,1,8.25-6c2.4-.57.67-.2,2.48-.69a1.71,1.71,0,0,0,.66-.33,24.77,24.77,0,0,1,9-4.28c4.31-1.25,8.82-2.12,12.68-4.37,5.44-3.17,8.95-8.72,13-13.51s7.41-7.85,15.39-9.8l8.58-2.71c4.08-1.47,8.46-2.31,11.46-6.11a3.7,3.7,0,0,0,.21-.33C475.31,66,472.15,63,468.28,61"/><path class="cls-19" d="M377.06,76.11a.28.28,0,0,0,0-.09"/><path class="cls-23" d="M327.27,228.73c-10.77,5.32-20.61,15.58-22.48,27.45"/><path class="cls-23" d="M304,259.7v.65"/><path class="cls-23" d="M202.88,292c2.32,3.25,5.66,5.6,9,7.86s6.67,4.51,9.15,7.64,4,7.33,2.85,11.16"/><path class="cls-23" d="M223.47,323.56l-.3.29"/><path class="cls-21" d="M146.81,291.28h0"/></svg>